<svg width="237" height="25" viewBox="0 0 237 25" fill="none" xmlns="http://www.w3.org/2000/svg">
<path d="M14.9 0H0V2.2H14.9V0Z" transform="translate(97 22)" fill="black"/>
<path d="M5.3 20.1L4.7 23.1L4.6 23.8H3.8H1.2H0L0.2 22.8L4.6 0.7L4.7 7.62939e-07H5.5H8.3H9.1L9.2 0.7L13.6 22.8L13.8 23.8H12.6H10H9.2L9.1 23.1L8.5 20.1H5.3ZM6.9 10L6 16.4H7.8L6.9 10Z" transform="translate(0 0.0999985)" fill="black"/>
<path d="M8.9 1.7C9.9 2.7 10.4 4 10.4 5.4V18.6C10.4 20.1 9.9 21.3 8.9 22.3C7.9 23.3 6.6 23.8 5.2 23.8H0.799998H-7.62939e-07V22.9V18.5V5.3V0.9V3.8147e-07H0.7H5.1C6.6 0.1 7.8 0.599999 8.9 1.7ZM3.8 4.1V5.4V18.6V20H5.2C5.6 20 5.9 19.9 6.1 19.6C6.4 19.3 6.5 19 6.5 18.6V5.4C6.5 5 6.4 4.7 6.1 4.4C5.8 4.1 5.5 4 5.2 4H3.8V4.1Z" transform="translate(20.2998)" fill="black"/>
<path d="M8.5 0.100001H9.4V1V3.2V4.1H8.5H3.9V10.1H6.3H7.1V11V13.2V14H6.3H3.9V20H8.5H9.4V20.8V23V23.9H8.5H0.8H7.62939e-07V23V0.9V3.8147e-07H0.8L8.5 0.100001Z" transform="translate(37.7002)" fill="black"/>
<path d="M9 1.6C10 2.6 10.5 3.9 10.5 5.3V6.3V6.8H9.6H7.4H6.5V6.3V5.3C6.5 4.9 6.4 4.6 6.1 4.3C5.8 4 5.5 3.9 5.2 3.9C4.8 3.9 4.5 4 4.2 4.3C3.9 4.6 3.8 4.9 3.8 5.3V18.5C3.8 18.9 3.9 19.2 4.2 19.5C4.5 19.8 4.8 19.9 5.2 19.9C5.5 19.9 5.9 19.8 6.1 19.5C6.4 19.2 6.5 18.9 6.5 18.5V14.8H5.6H4.8V14V11.8V10.9H5.6H9.5H10.4V11.8V18.5C10.4 19.9 9.9 21.2 8.9 22.2C7.9 23.2 6.6 23.7 5.2 23.7C3.7 23.7 2.5 23.2 1.5 22.2C0.500003 21.2 3.05176e-06 19.9 3.05176e-06 18.5V5.3C3.05176e-06 3.8 0.500003 2.6 1.5 1.6C2.5 0.599999 3.8 7.62939e-07 5.2 7.62939e-07C6.7 7.62939e-07 8 0.499999 9 1.6Z" transform="translate(53.7998 0.0999985)" fill="black"/>
<path d="M5.3 20.1L4.7 23.1L4.6 23.8H3.8H1.2H-1.52588e-06L0.200003 22.8L4.6 0.7L4.7 7.62939e-07H5.5H8.3H9.1L9.2 0.7L13.6 22.8L13.8 23.8H12.6H10H9.2L9.1 23.1L8.5 20.1H5.3ZM6.9 10L6 16.4H7.8L6.9 10Z" transform="translate(70.6001 0.0999985)" fill="black"/>
<path d="M0.800003 23.8H0V22.9V12.2V7.2V0.899999V-3.8147e-07H0.800003H3H4.39999C5.99999 -3.8147e-07 7.4 0.6 8.5 1.7C9.6 2.8 10.2 4.2 10.2 5.8V9.4C10.2 10.9 9.7 12.2 8.7 13.3C9.7 14.4 10.2 15.7 10.2 17.2V21.6C10.2 22.6 10.3 23.3 10.6 23.8H6.7C6.5 23.5 6.39999 23.2 6.39999 22.8C6.39999 22.4 6.3 22 6.3 21.6V17.1C6.3 16.6 6.1 16.1 5.7 15.8C5.3 15.4 4.89999 15.2 4.39999 15.2H3.89999V22.9V23.8H3H0.800003ZM3.89999 11.3H4.39999C4.89999 11.3 5.4 11.1 5.7 10.7C6 10.3 6.3 9.9 6.3 9.4V5.8C6.3 5.3 6.1 4.8 5.7 4.5C5.3 4.1 4.89999 3.9 4.39999 3.9H3.89999V11.3Z" transform="translate(126 0.800003)" fill="black"/>
<path d="M5.3 20.1L4.70001 23.1L4.6 23.8H3.8H1.20001H-6.10352e-06L0.200006 22.8L4.6 0.7L4.70001 -3.8147e-07H5.49999H8.3H9.1L9.20001 0.7L13.6 22.8L13.8 23.8H12.6H9.99999H9.20001L9.1 23.1L8.49999 20.1H5.3ZM6.9 10L5.99999 16.4H7.8L6.9 10Z" transform="translate(142.4 0.800003)" fill="black"/>
<path d="M6.10352e-06 -3.8147e-07H3.79999L8.79999 15.3L13.8 -3.8147e-07H17.6V23.8H13.7V13.1L10.2 23.8H7.50001L4.00001 13.1V23.8H0.0999969L6.10352e-06 -3.8147e-07Z" transform="translate(162.6 0.800003)" fill="black"/>
<path d="M5.3 20.1L4.69999 23.1L4.6 23.8H3.8H1.19999H-3.05176e-06L0.199994 22.8L4.6 0.7L4.69999 -3.8147e-07H5.5H8.3H9.1L9.19999 0.7L13.6 22.8L13.8 23.8H12.6H10H9.19999L9.1 23.1L8.5 20.1H5.3ZM7 10L6.1 16.4H7.90001L7 10Z" transform="translate(186.2 0.800003)" fill="black"/>
<path d="M8.89999 1.7C9.89999 2.7 10.4 4 10.4 5.4V18.6C10.4 20.1 9.89999 21.3 8.89999 22.3C7.89999 23.3 6.6 23.8 5.2 23.8H0.800003H0V22.9V18.5V5.3V0.900001V-7.62939e-07H0.800003H5.2C6.6 0.0999992 7.89999 0.7 8.89999 1.7ZM3.8 4.1V5.5V18.7V20.1H5.2C5.6 20.1 5.90001 20 6.10001 19.7C6.40001 19.4 6.5 19.1 6.5 18.7V5.5C6.5 5.1 6.40001 4.8 6.10001 4.5C5.80001 4.2 5.5 4.1 5.2 4.1H3.8Z" transform="translate(206.5 0.699997)" fill="black"/>
<path d="M5.29999 20.1L4.7 23.1L4.6 23.8H3.79999H1.2H6.10352e-06L0.200003 22.8L4.6 0.7L4.7 -3.8147e-07H5.50001H8.29999H9.1L9.2 0.7L13.6 22.8L13.8 23.8H12.6H10H9.2L9.1 23.1L8.50001 20.1H5.29999ZM7.00001 10L6.1 16.4H7.9L7.00001 10Z" transform="translate(223.1 0.800003)" fill="black"/>
<path d="M4.9 0.9C5.4 1.4 5.7 2.1 5.7 2.9V9.9C5.7 10.7 5.4 11.3 4.9 11.9C4.4 12.4 3.7 12.7 2.9 12.7H0.500002H1.52588e-06V12.2V9.9V2.9V0.5V3.8147e-07H0.500002H2.9C3.7 3.8147e-07 4.4 0.3 4.9 0.9ZM2.2 2.1V2.8V9.8V10.5H2.9C3.1 10.5 3.3 10.4 3.4 10.3C3.5 10.2 3.6 10 3.6 9.8V2.8C3.6 2.6 3.5 2.4 3.4 2.3C3.3 2.2 3.1 2.1 2.9 2.1H2.2Z" transform="translate(96.8999)" fill="black"/>
<path d="M4.8 0.81895C5.3 1.31895 5.6 2.01895 5.6 2.81895V9.81895C5.6 10.6189 5.3 11.2189 4.8 11.8189C4.3 12.3189 3.6 12.6189 2.8 12.6189C2 12.6189 1.4 12.3189 0.8 11.8189C0.3 11.3189 -3.05176e-06 10.6189 -3.05176e-06 9.81895V2.81895C-3.05176e-06 2.01895 0.3 1.41895 0.8 0.81895C1.3 0.21895 2 0.0189508 2.8 0.0189508C3.6 -0.0810492 4.3 0.21895 4.8 0.81895ZM2.3 2.21895C2.2 2.31895 2.1 2.51895 2.1 2.71895V9.71895C2.1 9.91895 2.2 10.1189 2.3 10.2189C2.4 10.3189 2.6 10.419 2.8 10.419C3 10.419 3.2 10.3189 3.3 10.2189C3.4 10.1189 3.5 9.91895 3.5 9.71895V2.71895C3.5 2.51895 3.4 2.31895 3.3 2.21895C3.2 2.11895 3 2.01895 2.8 2.01895C2.6 2.01895 2.5 2.11895 2.3 2.21895Z" transform="translate(106.2 0.0810471)" fill="black"/>
</svg>
