<svg width="37" height="35" viewBox="0 0 37 35" fill="none" xmlns="http://www.w3.org/2000/svg">
<path d="M36.1 21.6C36.2 21.5 36.2 21.4 36.2 21.3C36.3 20.3 36.3 19.3 36.4 18.4C36.4 18.4 36.4 18.3 36.4 18.2C36.3 18.2 36.3 18.3 36.2 18.3C36.2 18.2 36.2 18.1 36.2 18C36.3 17.2 36.2 16.4 35.9 15.6C35.6 14.6 35.1 13.6 35 12.5C34.8 12.9 34.7 13.4 34.5 13.9C34.2 13 33.7 12.3 33 11.7C32.3 11 31.5 10.3 30.8 9.6C30.8 9.6 30.8 9.6 30.7 9.6C30.6 9.8 30.5 10.1 30.5 10.3C30.1 10.1 29.6 9.9 29.2 9.8C27.3 9.4 25.3 9.3 23.4 9.4H23.3C23.1 9.3 22.9 9.2 22.7 9.2C22.1 9.1 21.5 9 21 8.8C20.7 8.7 20.4 8.5 20.2 8.3C20.5 8.1 20.6 7.9 20.6 7.7C20.6 7.5 20.5 7.3 20.2 7.2C20.1 7.2 19.9 7.1 19.8 7C19.7 6.9 19.6 6.8 19.7 6.7C19.9 6.2 20.1 5.8 20.6 5.5C20.9 5.3 21.1 5.3 21.4 5.5V5.6C21.2 5.6 21.1 5.6 20.9 5.7C21 6.1 21.2 6.3 21.6 6.3C22.1 6.3 22.6 5.9 22.7 5.5C22.8 5.2 22.6 4.9 22.3 4.8C22.3 5.1 22.5 5.4 22.2 5.7C22.2 5.5 22.2 5.3 22.2 5.1C22.2 5.3 22.1 5.5 22.1 5.7H22C22 5.5 22 5.2 22 5H21.9C21.9 5.1 21.9 5.3 21.9 5.4C21.9 5.6 21.9 5.7 21.7 5.8C21.7 5.5 21.7 5.2 21.7 4.9C21.7 5 21.7 5.2 21.6 5.4C21.5 5.3 21.4 5.2 21.4 5.1C21.1 5.5 20.8 5.3 20.4 5.2C20.3 5.5 20.2 5.8 19.8 5.7C19.8 5.9 19.8 6.1 19.8 6.2C19.8 6.4 19.7 6.5 19.7 6.7C19.2 5.4 20.3 4.5 22.2 4.5C21.5 4.2 20.8 4.5 20 4.7C20.1 4.4 20 4 20.2 3.8C20.5 3.4 20.6 3 20.5 2.5C20.4 1.6 19.9 0.9 19.5 0.2C19.5 0.1 19.3 0.1 19.2 1.90735e-07C19.2 1.90735e-07 19.2 -3.7998e-07 19.1 0.0999996C19.6 1 20.1 1.8 19.9 2.9H20C20 2.8 20.1 2.6 20.1 2.5C20.3 2.8 20.2 3.2 19.8 3.4C19.5 2.9 19.9 2.2 19.5 1.7C19.5 1.9 19.5 2.1 19.5 2.3C19.2 1.9 19.4 1.5 19.4 1.1H19.3C19.3 1.3 19.2 1.5 19.2 1.8H19.1C19.1 1.4 19.1 1.1 19.1 0.7H19C19.2 1.3 18.5 1.7 18.7 2.3C18.8 2.1 18.8 1.9 18.9 1.7H19C19.1 2.1 19.2 2.6 19.3 3C19.3 3.1 19.3 3.2 19.3 3.2C19.6 3.2 19.6 3.5 19.6 3.7C19.6 4.1 19.5 4.5 19.5 4.9C19.3 4.5 19.5 4.1 19.1 3.8C19 3.7 19.1 3.6 19.1 3.5C19.1 3.3 19.1 3.1 19.1 2.9C19.1 2.8 19 2.6 19 2.5H18.9C18.9 3.3 18.9 4.2 18.9 5C18.9 4.9 18.8 4.9 18.8 4.8C18.7 5.4 18.7 6 18.6 6.6C18.4 6.2 18.4 5.8 18.3 5.4C18.1 4.7 18.1 4.1 18.4 3.4C18.5 3.2 18.5 2.9 18.5 2.7C18.3 2.9 18.4 3.3 18.1 3.5C17.9 2.6 18.2 1.8 18.4 0.9C17.5 2.2 18 3.6 18.1 5C17.8 4.8 17.5 4.5 17.2 4.4C16.8 4.2 16.3 4.2 16.2 4.4C16.5 4.4 16.8 4.5 17.1 4.5C17.1 4.6 17.1 4.7 17.1 4.7C17.1 4.8 17.1 4.8 17.1 4.9H17C17 4.8 17 4.7 16.9 4.5C16.8 4.6 16.8 4.7 16.7 4.7C16.7 4.8 16.6 4.9 16.6 4.9H16.5C16.5 4.8 16.5 4.8 16.5 4.7C16.5 4.6 16.5 4.6 16.4 4.5C16.4 4.6 16.3 4.6 16.3 4.7C16.3 4.8 16.3 4.9 16.3 5H16.2C16.2 4.9 16.1 4.8 16.1 4.6C16.1 4.7 16 4.8 16 4.9C15.9 4.8 15.9 4.8 15.8 4.7C15.8 4.9 15.8 5.2 15.5 5C15.5 5.4 15.4 5.7 15.4 6C15 6 14.8 5.8 14.7 5.5C14.6 4.9 14.9 4.5 15.4 4.1C14.8 4.3 14.5 4.6 14.5 5.2C14.4 5.8 14.8 6.3 15.4 6.3C16 6.4 16.3 6.1 16.3 5.4V5.3C17.1 5.3 17.8 6 17.8 6.9C17.6 6.9 17.5 7 17.3 7C16.9 7.1 16.7 7.4 16.9 7.9C17 7.7 17.1 7.6 17.1 7.5C17.1 7.3 17.3 7.2 17.5 7.2C17.8 7.2 18.2 7.2 18.5 7.2C18.8 7.2 19.1 7.2 19.4 7.3C19.5 7.3 19.5 7.5 19.6 7.6C19.6 7.7 19.6 7.7 19.6 7.9C19.5 7.8 19.4 7.7 19.4 7.7C19.4 7.8 19.3 7.8 19.3 7.9C19.2 7.8 19.2 7.7 19.1 7.7V7.8C18.9 7.8 18.8 7.9 18.6 8C18.6 7.9 18.6 7.8 18.6 7.6C18.5 7.7 18.5 7.8 18.4 7.9C18.3 7.8 18.3 7.7 18.2 7.7C18.1 7.8 18.1 7.9 18 8.1C18 8 17.9 7.9 17.9 7.8C17.8 7.9 17.8 8 17.7 8.1C17.6 7.9 17.6 7.8 17.6 7.7H17.5C17.5 7.8 17.5 7.9 17.5 8.1C17.5 8.1 17.5 8.1 17.4 8.1C17.4 8 17.3 7.9 17.3 7.7C17 8.5 17 8.6 15.7 9C15.7 9.2 15.7 9.3 15.6 9.5H15.5C15.5 9.2 15.4 9.1 15.1 9.1C14.3 9.2 13.5 9.2 12.7 9.2C10.9 9.3 9.1 9.4 7.3 9.9H7.2C7.2 9.7 7.2 9.5 7.3 9.3C7.1 9.4 6.9 9.5 7 9.6C7 10.1 6.6 10.3 6.4 10.5C6.1 10.8 6 11.1 6 11.4C6 11.5 6 11.5 6 11.6C6 11.6 6 11.6 5.9 11.6C5.9 11.4 5.9 11.2 5.9 10.9H5.8C5.8 11 5.8 11.2 5.8 11.3C5.8 11.4 5.8 11.6 5.7 11.7H5.6C5.6 11.5 5.6 11.3 5.6 11C5.3 11.4 5.6 11.9 5.4 12.2H5.3C5.3 12.1 5.3 12 5.3 11.9H5.2C5.2 12.1 5.1 12.2 5.1 12.4C5.1 12.2 5 12 5 11.8C4.9 11.9 5 12 4.9 12.1C4.9 12.2 4.9 12.3 4.8 12.4H4.7C4.7 12.3 4.6 12.2 4.6 12.1C4.6 12.3 4.6 12.4 4.5 12.7C4.4 12.5 4.4 12.5 4.3 12.4C4.3 12.6 4.2 12.8 4.2 12.9H4.1C4.1 12.8 4 12.7 4 12.7H3.9C3.9 12.8 3.9 13 3.9 13.1C3.5 13 3.5 13 3.5 13.5C3.1 13.5 2.9 13.4 3.1 13C3.4 12.2 4 11.7 4.6 11.2C5.2 10.8 5.8 10.4 6.4 10.1C6.5 10 6.7 9.9 6.8 9.8C6.8 9.8 6.8 9.7 6.7 9.7C5.5 10.5 4.4 11.3 3.2 12C3.1 11.8 3.1 11.5 2.8 11.3C2.4 12.3 1.7 13.2 1.2 14C0.9 14.5 0.599997 15 0.399997 15.5C0.399997 15.6 0.299998 15.6 0.299998 15.7C0.199998 15.6 0.100003 15.6 3.05176e-06 15.5C0.300003 16.4 0.2 17.3 0.2 18.3C0.2 18.7 0.2 19.1 0.2 19.5C0.2 20.1 0.599997 21.1 0.899997 21.4C0.799997 21.2 0.8 21 0.7 20.9C0.4 20.2 0.299998 19.6 0.299998 18.8C0.299998 17.9 0.5 16.9 0.2 16C1 16.4 1.4 18 1.1 19C1.1 18.8 1.1 18.6 1.1 18.4C1 18.6 1 18.7 1 18.9C1 19.2 1 19.5 1 19.9C1.1 19.8 1.1 19.7 1.2 19.6C1.2 19.7 1.3 19.8 1.3 19.9C1.3 20.3 1.3 20.8 1.3 21.2C1.3 21.4 1.3 21.5 1.5 21.6C1.7 21.7 1.7 21.8 1.6 22C1.5 22.2 1.6 22.5 1.6 22.7C1.6 23 1.7 23.4 1.7 23.7C1.7 23.9 1.6 24.1 1.7 24.3C1.7 24.6 1.7 24.7 1.4 24.7C1.3 24.7 1.1 24.9 1.1 24.9C1.1 25.1 1.2 25.3 1.3 25.3C1.5 25.4 1.8 25.5 2 25.6C2.4 25.7 2.8 25.7 3.1 25.8C3.5 25.9 3.6 26.2 3.5 26.7C3.5 26.8 3.5 26.9 3.4 27C3.9 27.2 4.3 27.4 4.5 27.9C4.5 28 4.5 28.2 4.5 28.3C4.3 28.7 4.3 29.3 4.7 29.5C5 29.7 5.1 30 5.1 30.3C5.1 30.4 5.1 30.4 5.2 30.5C5.4 31.1 5.6 31.7 5.7 32.3C5.8 32.6 5.8 32.9 5.8 33.1L6.1 34.4C6.1 34.4 6.3 34.7 6.7 34.8C9.4 34.7 19.4 34.6 30.5 34.7C30.7 34.6 30.8 34.5 30.8 34.5C30.9 34.2 31 33.8 31 33.4C31 33.1 31 32.9 31.1 32.6C31.3 31.6 31.6 30.6 31.8 29.7C31.8 29.5 31.9 29.4 32.1 29.3C32.4 29.2 32.6 29 32.5 28.6C32.5 28.4 32.5 28.2 32.5 28C32.5 27.5 32.7 27.1 33.1 26.9C33.4 26.8 33.4 26.6 33.3 26.3C33.2 26.1 33.3 25.9 33.5 25.8C33.8 25.7 34.1 25.6 34.4 25.5C34.9 25.4 35.4 25.4 35.8 25.2C36.2 25.1 36.4 24.8 36.4 24.3C36 24.2 35.7 24.2 35.3 24.1C35.5 23.6 35.6 23 35.8 22.5C35.8 22 36 21.8 36.1 21.6ZM17.4 5.1C17.4 4.9 17.4 4.7 17.4 4.4C17.7 4.7 17.6 4.9 17.4 5.1ZM35 17.8C35.1 17.5 35.3 17.2 35.4 16.9C35.5 17.1 35.5 17.1 35 17.8ZM33.5 17C33.9 17.2 33.7 17.6 33.9 17.9C34.1 17.7 34 17.6 34 17.4C33.8 16.6 33.9 15.8 34.1 15C34.1 15 34.1 15 34.2 14.9C34.3 15.1 34.4 15.4 34.6 15.6C34.7 14.7 34.7 13.8 35 13H35.1C35.2 13.4 35.2 13.7 35.3 14.1H35.2L35.1 14H35C35.1 14.5 35.3 15.1 35.5 15.6C35.5 15.6 35.4 15.7 35.3 15.8C35.4 15.9 35.5 16 35.5 16C35.5 16.3 35.5 16.6 35.4 16.9C35.3 17.2 35.1 17.6 35 17.9C35 18 34.9 18 34.8 18.1C34.6 18.6 34.5 19.2 34.3 19.7C34.3 19.7 34.3 19.7 34.2 19.7C34.2 19.4 34.2 19.1 34.2 18.8H34.1C34.1 19.4 34 20 34 20.6H33.9C33.9 20.3 33.9 20 33.9 19.7C33.7 19.9 33.9 20.2 33.6 20.4C33.6 19.2 33.7 18.1 33.5 17ZM34.5 20.9C34.7 21.5 34.4 21.8 34 22.2H33.9C33.9 22.1 34 22 34.1 21.8C34 21.9 33.9 22 33.8 22.1C33.6 21.4 34.1 20.1 34.7 19.6C35.1 20.3 34.6 21 34.6 21.7H34.5C34.5 21.5 34.5 21.2 34.5 21C34.5 20.9 34.5 20.9 34.5 20.9ZM33.4 21.7C33.1 22 33.5 22.5 33.1 22.8C33.1 22.4 33.1 22 33.2 21.6C33.2 21.3 33.4 21.1 33.7 21C33.7 21.3 33.6 21.6 33.6 21.9C33.6 22.2 33.6 22.5 33.5 22.8C33.2 22.4 33.5 22.1 33.4 21.7ZM26.1 9.4C27 9.5 27.8 9.6 28.7 9.7C29.6 9.8 30.2 10.5 31.1 10.9C30.9 10.5 30.8 10.2 30.7 9.9H30.8C31.3 10.3 31.8 10.6 31.9 11.4C31.9 11.3 31.9 11.3 31.9 11.2C31.9 11.1 31.9 11.1 32 11H32.1C32.1 11.3 32.1 11.6 32.1 11.9H32.2C32.2 11.7 32.3 11.5 32.3 11.3H32.4C32.4 11.6 32.4 12 32.4 12.3C32.4 12.3 32.4 12.3 32.5 12.3C32.5 12.2 32.5 12.1 32.6 12C32.9 12.3 32.7 12.6 32.8 12.8H32.9C32.9 12.7 32.9 12.6 33 12.3C33.2 12.6 33 12.9 33 13.2C33 13.1 32.9 13 32.9 12.9C32.9 12.9 32.8 12.9 32.8 13C32.8 13.1 32.9 13.2 33 13.3C32.9 13.3 32.8 13.4 32.7 13.4C32.7 13.2 32.7 13.1 32.7 13C32.7 13 32.7 13 32.6 13C32.6 13.2 32.5 13.4 32.5 13.6H32.4C32.4 13.3 32.4 12.9 32.3 12.6C32.3 12.6 32.3 12.6 32.2 12.6C32.2 12.8 32.2 13 32.2 13.2C31.8 12.9 32.1 12.5 31.9 12.2C31.9 12.4 31.9 12.6 31.9 12.8H31.8C31.8 12.6 31.7 12.4 31.7 12.2C31.6 12.2 31.6 12.3 31.5 12.3C31.5 12.1 31.5 12 31.5 11.7C31.4 11.9 31.4 12 31.3 12.1H31.2C31.2 11.9 31.2 11.7 31.1 11.6C30.6 11.7 31 11.1 30.7 11.1C30.7 11.2 30.7 11.3 30.7 11.4H30.6C30.6 11.2 30.6 11.1 30.6 10.9C30.6 10.9 30.6 10.9 30.5 10.9C30.4 11 30.4 11.1 30.3 11.3C30.3 11.1 30.3 10.9 30.3 10.7H30.2C30.2 10.8 30.1 10.9 30 11.1C30 10.9 30 10.7 29.9 10.5H29.8C29.8 10.6 29.7 10.8 29.7 10.9H29.6C29.6 10.8 29.6 10.7 29.6 10.6C29.6 10.5 29.5 10.4 29.5 10.4C29.5 10.5 29.4 10.5 29.4 10.6C29.4 10.7 29.4 10.8 29.4 10.8H29.3C29.3 10.6 29.3 10.4 29.2 10.2C29.2 10.2 29.2 10.2 29.1 10.2C29.1 10.3 29.1 10.5 29.1 10.6H29C29 10.5 28.9 10.3 28.9 10.1C28.8 10.2 28.8 10.3 28.8 10.4H28.7C28.7 10.3 28.7 10.2 28.6 10C28.6 10.1 28.5 10.2 28.5 10.3C28.5 10.3 28.5 10.3 28.4 10.3C28.4 10.2 28.3 10 28.3 9.9C28.3 10 28.2 10.1 28.2 10.2H28.1C28.1 10.1 28.1 9.9 28 9.8C27.9 10 27.9 10.1 27.9 10.2H27.8C27.8 10.1 27.8 10 27.7 9.8C27.6 9.9 27.6 9.9 27.5 10C27.5 9.9 27.4 9.8 27.4 9.7C27.3 9.7 27.3 9.8 27.2 9.8C27.2 9.7 27.1 9.7 27 9.6C27 9.7 26.9 9.8 26.9 9.8C26.6 9.7 26.4 9.6 26.1 9.5C26.1 9.6 26.1 9.5 26.1 9.4ZM18.9 10.5C19.1 10.7 19.1 11 18.9 11.5C18.9 11.1 18.9 10.8 18.9 10.5ZM19.4 15.8C19.3 15.4 19.4 15 19.6 14.6C19.8 14.3 19.9 13.9 20.1 13.6C20.3 14 20.4 15.3 20.1 15.9C20.1 15.6 20.1 15.3 20.1 15H20C20 15.3 20 15.5 20 15.8C20 16.1 20 16.3 20 16.6H19.9C19.9 16.4 19.9 16.3 19.9 16C19.7 16.4 19.6 16.8 19.4 17.2C19.4 17 19.4 16.8 19.3 16.6H19.2C19.2 16.9 19.2 17.2 19.2 17.5C19 17.3 19 17.3 19.1 16.5C19.3 16.5 19.5 16.5 19.6 16.4C19.4 16.3 19.5 16 19.4 15.8ZM20.8 20.5C20.8 20.6 20.8 20.8 20.8 20.9C20.8 21.1 20.7 21.2 20.7 21.4H20.6C20.6 21.2 20.6 21.1 20.6 20.9C20.6 20.7 20.6 20.6 20.6 20.4H20.5C20.5 20.7 20.5 20.9 20.5 21.3C20.3 21.2 20.1 21.1 20.1 21C20 20.9 20.1 20.7 20.1 20.5H20C20 20.6 19.9 20.7 19.9 20.8C19.9 20.9 19.9 21.1 19.9 21.3C19.5 21.1 19.8 20.8 19.6 20.5C19.6 20.8 19.6 21 19.6 21.3C19.2 21.2 19.5 20.8 19.3 20.6C19.3 21 19.2 21.2 19.2 21.5H19.1C19.1 21.3 19 21.2 19 21C19 21.2 18.9 21.4 18.9 21.7C18.8 21.6 18.8 21.5 18.7 21.5C18.5 21.6 18.8 22.1 18.4 22C18.3 22.3 18.6 22.6 18.3 22.8L18.2 22.7C18.1 21.6 18.6 20.3 19.9 20C20.2 19.9 20.6 20 21 20.1C21.1 20.1 21.2 20.3 21.2 20.4C21.2 20.7 21.2 21 21.1 21.3H21C21 21 21 20.8 21 20.5C20.9 20.5 20.9 20.5 20.8 20.5ZM19.1 23.7C18.9 23.5 19 23.3 19 23.1H19.1C19.1 23.3 19.1 23.5 19.2 23.7C19.2 23.6 19.2 23.6 19.1 23.7ZM19.1 25C19.1 24.7 19.1 24.3 19.1 24C19.4 24.2 19.4 24.8 19.1 25ZM19.4 25.2L19.5 25.3C19.6 25.6 19.7 26 19.7 26.3C19.1 26.5 18.6 26 18.5 25.1C18.9 25.1 19.2 25.1 19.4 25.2ZM19.4 24.2H19.5C19.5 24.5 19.5 24.7 19.6 25C19.3 24.9 19.3 24.8 19.4 24.2ZM16.9 24C17.1 24 17.2 23.9 17.4 23.9C17.4 24.2 17.4 24.5 17.4 24.8C17.7 24.5 17.3 24.1 17.8 23.9C17.8 24.1 17.8 24.3 17.7 24.5H17.8C17.8 24.3 17.8 24.1 17.8 23.9C18.1 24 18.1 24.3 17.9 24.9C17.8 24.9 17.7 24.9 17.6 24.9C17.5 24.9 17.4 25 17.2 25C17.2 24.9 17.2 24.8 17.1 24.7C17.1 24.7 17.1 24.6 17 24.6C17 24.7 17 24.9 16.9 25.1C16.8 24.7 17 24.3 16.9 24ZM18.2 25.2C18.6 25.2 18.5 25.5 18.5 25.7C18.6 25.9 18.6 26.1 18.7 26.3C18.4 26.5 17.9 26.3 17.7 26C17.6 25.8 17.5 25.6 17.4 25.2C17.8 25.1 18 25.2 18.2 25.2ZM18.2 23.8C18.5 24 18.5 24.3 18.3 25C18 24.6 18.2 24.2 18.2 23.8ZM18.5 23.9C18.8 24.2 18.5 24.6 18.6 25C18.3 24.6 18.5 24.2 18.5 23.9ZM18.8 25C18.8 24.6 18.8 24.2 18.8 23.9C19.1 24.1 19.1 24.7 18.8 25ZM19 23.5H18.9L18.8 23.4C18.8 23.3 18.8 23.2 18.8 23.1C18.8 23.1 18.8 23.1 18.7 23.1C18.7 23.2 18.7 23.3 18.7 23.3C18.7 23.4 18.6 23.4 18.6 23.5C18.6 23.4 18.5 23.4 18.5 23.3C18.5 23.3 18.5 23.2 18.4 23.2C18.4 23.3 18.4 23.4 18.3 23.5H18.2C18.2 23.4 18.1 23.3 18.1 23.2C18.1 23.3 18 23.4 18 23.5H17.9C17.9 23.3 17.8 23.2 17.8 23C17.8 23.2 17.7 23.3 17.7 23.5H17.6C17.6 23.4 17.5 23.3 17.5 23.2C17.4 23.3 17.4 23.4 17.3 23.5C17.2 23.4 17.2 23.4 17.2 23.3C17.1 23.4 17.1 23.5 17 23.7C16.9 23.5 16.9 23.5 16.9 23.3C16.8 23.5 16.8 23.6 16.7 23.7C16.5 23.4 16.5 23.1 16.8 23.1C17.4 23 18.1 23 18.7 23C18.8 23 18.9 23.1 18.9 23.2C19 23.2 19 23.4 19 23.5ZM16.4 18.6C16.4 18.3 16.5 18.1 16.8 17.9C17.2 17.7 17.6 17.4 17.9 17.2C18.3 17.4 18.6 17.7 19 18C19.3 18.2 19.7 18.4 19.5 18.9C19.4 19 19.5 19.2 19.5 19.4H19.4C19.4 19.2 19.4 19.1 19.3 18.9H19.2C19.2 19.2 19.2 19.4 19.2 19.8C18.9 19.6 19.1 19.3 19.1 19.1C19.1 18.9 19.1 18.6 19.1 18.4H19C19 18.9 19 19.3 19 19.9C18.7 19.6 18.8 19.4 18.7 19.2C18.7 19 18.7 18.7 18.6 18.5C18.6 18.7 18.6 18.9 18.5 19.1H18.4C18.4 18.9 18.4 18.7 18.4 18.5H18.3C18.3 19.2 18.3 20 18.2 20.7H18.1C18 19.8 18 18.9 17.9 18C17.7 18.3 17.7 18.6 17.8 18.9C17.8 19.2 17.9 19.5 17.9 19.7H17.8C17.7 19.4 17.6 19.1 17.5 18.9C17.5 18.9 17.5 18.9 17.4 18.9C17.4 19.6 17.4 20.3 17.4 21H17.3C16.9 20.2 16.3 19.6 16.4 18.6ZM16.5 20.5C16.5 20.8 16.5 21.1 16.5 21.4H16.4C16.4 21.1 16.4 20.8 16.5 20.5C16.4 20.5 16.4 20.5 16.5 20.5ZM17.7 21.3C17.8 21.7 18 22.1 17.8 22.6C17.7 22.2 17.6 21.8 17.7 21.3C17.6 21.3 17.6 21.4 17.7 21.3ZM17.5 19.3H17.6C17.6 19.7 17.7 20.1 17.7 20.5H17.6C17.6 20.2 17.6 19.7 17.5 19.3ZM17 20.9C17.3 21.2 17 21.5 17.1 21.8C16.9 21.6 17 21.3 17 20.9ZM18.6 8.8C18.8 9 18.8 11.1 18.6 12C18.6 10.9 18.6 9.9 18.6 8.8ZM18.2 10H18.3C18.3 9.7 18.3 9.4 18.3 9.1C18.3 9.1 18.3 9.1 18.4 9.1C18.4 9.2 18.5 9.3 18.5 9.4C18.5 9.5 18.5 9.6 18.5 9.6C18.4 10.7 18.4 11.7 18.5 12.8C18.5 12.8 18.5 12.9 18.5 13C18.2 12.7 18.4 12.4 18.3 12.1H18.2C18.2 12.4 18.1 12.6 18.1 12.9C18.1 12.9 18.1 12.9 18 12.9C17.9 13 17.8 13.1 17.8 13.2C17.7 13.6 17.7 14 17.6 14.4C17.8 14.2 18 13.9 18.2 13.7C18.5 14.4 19.2 14.9 18.7 15.8C18.8 15.8 18.8 15.9 18.9 15.9V16C18.7 16.1 18.6 16.3 18.6 16.5C18.6 16.9 18.6 17.3 18.6 17.6H18.5C18.5 17.5 18.4 17.4 18.4 17.3C18.4 16.4 18.4 15.5 18.4 14.6H18.3C18.3 15.5 18.3 16.3 18.3 17.2H18.2C18.2 16.9 18.2 16.7 18.1 16.3C17.9 16.7 17.7 17 17.5 17.3C17.5 17.2 17.5 17.1 17.5 17C17.4 17.2 17.2 17.4 17.1 17.7H17C17 17.5 17 17.2 17 17C16.8 17.3 17.1 17.7 16.7 17.9C16.7 16.9 16.7 15.9 16.7 14.9H16.6C16.6 15.4 16.6 15.9 16.5 16.4C16.5 16.9 16.5 17.4 16.4 17.9C16.2 17.3 16.3 16.6 16.3 16C16 17.1 16.2 18.1 16.1 19.2L16 19.1C16 18 16 17 16 15.9C16 15.6 16.1 15.2 16.1 14.9L16.2 14.8H16.3C16.4 14.4 16.4 13.9 16.5 13.5C16.9 13.9 17 14.3 17 14.8C17 15.2 16.9 15.5 16.9 15.9C16.9 16.2 16.9 16.5 16.9 16.7C17.3 16.7 17.5 16.6 17.5 16.3C17.5 16.2 17.5 16 17.5 15.9C17.4 15.4 17.4 15 17.6 14.5C17.5 14.5 17.5 14.6 17.4 14.7C17.2 13.7 17.3 12.8 17.4 11.9C17.6 12.6 17.4 13.4 17.5 14.1C17.7 13.9 17.7 13.6 17.7 12.6C17.7 12.1 17.7 11.6 17.7 11.1H17.8C17.8 11.4 17.8 11.7 17.8 12H17.9C17.9 11.8 18 11.7 18 11.5C18 11.1 18 10.8 18 10.4C18 10.2 18.1 10.1 18.2 10ZM17.1 12.4C17.2 12.9 17.2 13.4 17.2 13.9C16.9 13.4 17 12.9 17.1 12.4ZM18 9.1C17.9 9.5 17.9 9.9 17.8 10.3C17.5 11.2 17.1 12 16.7 12.9C15.9 14.4 15.6 16 15.7 17.7C15.8 18.4 16 19.1 16.2 19.8C16.2 19.9 16.2 19.9 16.2 19.9C15.7 20 15.3 20.1 14.9 20.2C14.8 20.2 14.7 20.3 14.7 20.4C15 20.3 15.3 20.2 15.6 20.1C15.6 20.5 15.6 20.9 15.6 21.3C15.3 21.1 15.5 20.8 15.3 20.5C15.3 20.8 15.3 21 15.3 21.3C14.9 21.1 15.1 20.8 15 20.6C15 21 15 21.5 15 21.9C15 21.7 15.1 21.6 15.1 21.4H15.2C15.2 21.5 15.2 21.7 15.2 21.8C15.2 21.7 15.2 21.5 15.2 21.4C15.4 21.5 15.4 21.6 15.4 22.1C15 22.1 14.7 22.2 14.3 22.2C14.4 22.4 14.6 22.5 14.9 22.5C15.1 22.5 15.3 22.4 15.5 22.2C15.6 22.1 15.7 21.9 15.9 21.6C16.1 21.6 16.3 21.7 16.5 21.9C16.6 22.2 16.8 22.4 16.9 22.7C16.9 22.8 16.9 22.8 16.9 22.9C16.9 22.9 16.8 23 16.7 23C16.1 23.2 16.1 23.5 16.4 23.9C16.4 24.1 16.4 24.3 16.4 24.5H16.5C16.5 24.3 16.6 24.1 16.6 24C16.8 24.2 16.8 24.4 16.7 25C16.6 25 16.4 25 16.3 25C16.3 25 16.3 25 16.3 25.1C16.4 25.1 16.6 25.1 16.7 25.1C17.3 25 17.4 25.1 17.5 25.6C17.5 25.8 17.6 26 17.6 26.2C16.6 26.3 16.5 25.4 16 24.9C15.6 24.9 15.4 25 15.1 25C15.1 24.8 15.1 24.7 15 24.6H14.9C14.9 24.7 14.9 24.9 14.9 25C14.8 25 14.6 25 14.4 25.1C14.4 25 14.3 24.9 14.3 24.7C13.8 24.7 13.3 24.7 12.8 24.7C12.4 24.7 11.9 24.6 11.5 24.5C11.2 24.4 11 24.3 11 23.9C11 23.8 10.8 23.6 10.7 23.5C10.7 23.4 10.5 23.4 10.5 23.4C10.5 22.9 10.5 22.5 10.7 22.1C11 22.3 11.3 22.4 11.6 22.5C11.8 22.5 12 22.4 12.2 22.3C12.6 22 12.8 21.5 12.6 21.1C12.5 20.6 12 20.3 11.5 20.3C11.5 20.3 11.6 20.4 11.6 20.5C11.7 21.3 11.7 21.4 11.4 21.7C11.4 21.5 11.4 21.3 11.4 21.2C11.4 21 11.4 20.9 11.4 20.7C11.4 20.7 11.4 20.7 11.3 20.7C11.3 20.9 11.3 21.2 11.2 21.5C10.9 21.2 11.1 20.9 10.9 20.7C10.9 21 10.9 21.2 10.9 21.5C10.5 21.3 10.7 21 10.6 20.8C10.6 21 10.6 21.3 10.5 21.5C10.4 21.5 10.4 21.5 10.3 20.8H10.2C10.2 21.1 10.2 21.4 10.1 21.7H10C10 21.4 10 21.1 10 20.9H9.9C9.9 21.2 9.9 21.4 9.9 21.7C9.7 21.6 9.7 21.6 9.6 21.2C9.6 21.6 9.6 22.1 9.6 22.6C8.9 21.8 9.5 20.6 10.6 20.2C10.2 20.3 9.9 20.4 9.5 20.5C9.5 19.7 9 19.3 8.4 19C8.3 18.9 8.2 18.8 8.2 18.7C7.9 17.9 8.1 17.1 8.3 16.4C8.7 15.2 9.5 14.1 10.7 13.5C11.8 12.9 13 12.3 14.1 11.7C15 11.2 15.9 10.7 16.5 9.9C17.4 9.9 17.7 9.5 18 9.1ZM16.2 20.3C16.2 20.6 16.2 20.9 16.2 21.2C16 21 16 21 16.2 20.3ZM15.9 21.1C15.7 21 15.7 20.8 15.8 20.2C16 20.3 16 20.5 15.9 21.1ZM13.5 26.5C13.3 26.5 13.1 26.6 12.9 26.6C12.8 26.6 12.7 26.5 12.7 26.4C12.5 26.1 12.3 25.8 12 25.4C11.8 25.4 11.7 25.5 11.5 25.6C11.5 25.3 11.5 25.1 11.5 24.8H11.6C11.6 25 11.7 25.2 11.7 25.3C11.7 25.3 11.7 25.3 11.8 25.3C11.8 25.2 11.8 25 11.8 24.8C11.9 25 12 25.1 12.1 25.2C12.1 25.1 12.1 25 12.1 24.9C12.3 24.9 12.4 24.9 12.6 25C12.6 25.1 12.6 25.2 12.6 25.4C12.5 25.4 12.4 25.4 12.4 25.3C12.4 25.3 12.4 25.3 12.4 25.4C12.5 25.4 12.5 25.5 12.6 25.5C12.9 25.5 13.2 25.5 13.5 25.4C13.9 25.3 14.2 25.4 14.4 25.8C14.5 26 14.6 26.2 14.7 26.4C14.1 26.6 13.7 26.4 13.3 25.7C13.3 26 13.4 26.2 13.5 26.5ZM12.7 29.5C12.7 29.2 12.7 28.9 12.7 28.6H12.8C12.9 28.7 12.9 28.9 13 29C13 28.9 13.1 28.8 13.1 28.7C13.2 28.9 13.3 29.1 13 29.3C12.9 29.3 12.9 29.4 12.8 29.5C12.7 29.7 12.6 29.9 12.6 30.1C12.5 30 12.4 30 12.3 29.9C12 30.5 11.5 30.5 10.9 30.3C10.9 30.3 10.9 30.2 10.9 30.1C11 30.1 11.2 30.1 11.3 30C11.3 30.1 11.4 30.2 11.4 30.3C11.4 30.1 11.4 30.1 11.5 30C11.7 29.9 11.8 29.8 11.9 29.8C11.9 29.8 11.9 29.9 12 30C12 30 12 30 12 29.9C12.1 29.8 12 29.5 12.3 29.6C12.3 29.6 12.4 29.5 12.4 29.4C12.4 29.2 12.4 29 12.4 28.7C12.4 28.6 12.5 28.5 12.6 28.4C12.6 28.8 12.6 29.1 12.7 29.5C12.6 29.5 12.6 29.5 12.7 29.5ZM12.3 29C12.1 28.9 11.9 28.9 11.7 28.8C11.7 28.6 11.8 28.4 11.8 28.3C11.8 28.3 11.8 28.3 11.9 28.3C11.9 28.4 12 28.5 12 28.5C12 28.6 12 28.7 12 28.7C12.1 28.6 12.2 28.4 12.2 28.3C12.2 28.4 12.3 28.6 12.3 28.7C12.3 28.8 12.3 28.9 12.3 29ZM12.1 29.1C12.1 29.4 11.9 29.5 11.6 29.6C11.5 29.6 11.4 29.5 11.3 29.5C11.3 29.6 11.3 29.7 11.2 29.8H11.1C11.1 29.7 11 29.6 11 29.4C11 29.5 11 29.6 11 29.6C10.8 29.6 10.6 29.6 10.4 29.7C10.3 29.5 10.4 29.3 10.6 29.2C11.1 29 11.6 29 12.1 29.1ZM10.5 30.5C10.5 30.3 10.5 30.2 10.5 30C10.8 30.2 10.8 30.4 10.5 30.5ZM10.4 24.4C10.6 24.8 10.4 25.2 10.4 25.6C10.1 25.2 10.4 24.8 10.4 24.4ZM10.3 27.6H10.4C10.4 27.8 10.4 28 10.4 28.3H10.3C10.3 28.1 10.3 27.8 10.3 27.6ZM10.4 22.9C10.4 22.6 10.4 22.4 10.3 22.1C10.6 22.3 10.6 22.3 10.4 22.9ZM10.8 28.9C10.8 28.7 10.9 28.6 10.9 28.4H11C11 28.6 11 28.7 10.9 28.9C10.9 28.9 10.9 28.9 10.8 28.9ZM11.2 28.8C11.2 28.6 11.2 28.4 11.2 28.1C11.5 28.3 11.3 28.5 11.3 28.7C11.2 28.8 11.2 28.8 11.2 28.8ZM11.4 28.9C11.4 28.6 11.4 28.4 11.4 28.2C11.7 28.5 11.7 28.7 11.4 28.9ZM11.1 28C11.1 27.8 11.2 27.7 11.2 27.6H11.1C11.1 27.8 11 28 11 28.2H10.9C10.9 28.1 10.8 28 10.8 27.8C10.8 27.9 10.7 28 10.7 28.1H10.6C10.6 27.9 10.6 27.7 10.6 27.4C10.7 27.5 10.8 27.5 10.8 27.6C10.9 27.5 11 27.4 11 27.5C11.2 27.5 11.4 27.6 11.4 27.9C11.4 27.8 11.5 27.7 11.5 27.7H11.6C11.6 27.8 11.6 27.9 11.6 28C11.4 28 11.3 28 11.1 28ZM10.6 25.9C10.7 25.9 10.8 25.9 10.9 25.8C11 26 11.1 26.2 11.2 26.5C11.2 26.6 11.2 26.6 11.2 26.7H11.1C11.1 26.6 11.1 26.6 11.1 26.5C11.1 26.4 11.1 26.4 11.1 26.3H11C11 26.4 11 26.6 11 26.8C10.4 26.8 10.4 26.7 10.6 25.9ZM10.7 25.6H10.6C10.6 25.2 10.7 24.8 10.7 24.4C10.9 24.8 10.6 25.2 10.7 25.6ZM11 25.5C11.3 25.3 11.1 25 11.2 24.8C11.5 25.1 11.2 25.4 11.3 25.6C11.1 25.6 11 25.7 10.8 25.7C10.8 25.3 10.8 24.9 10.8 24.6H10.9C10.9 24.8 10.9 24.9 10.9 25.1C11 25.2 11 25.3 11 25.5ZM11.6 25.7C12 25.6 12.1 25.8 12.2 26.1C12.3 26.3 12.3 26.5 12.4 26.7C12.3 26.7 12.2 26.7 12 26.7C12 26.6 12 26.5 12 26.4C12 26.5 12 26.6 11.9 26.7C11.6 26.7 11.4 26.5 11.3 26.3C11 25.7 11.1 25.8 11.6 25.7ZM14.3 25.6C14.3 25.6 14.3 25.3 14.4 25.3C14.7 25.3 14.9 25.2 15.2 25.3C15.3 25.3 15.4 25.5 15.5 25.6C15.4 25.7 15.3 25.8 15.3 25.9C15.4 25.8 15.4 25.8 15.6 25.7C15.6 25.9 15.6 26.1 15.6 26.3C15.5 26.3 15.3 26.3 15.2 26.3C14.8 26.1 14.6 25.9 14.3 25.6ZM15.5 25.2C16.3 25.1 16.2 25.1 16.5 25.7C16.6 25.9 16.7 26 16.8 26.2C16.6 26.2 16.5 26.3 16.3 26.2C15.9 26.1 15.5 25.8 15.5 25.2ZM12.1 20.8C12.3 21 12.3 21.2 12.2 21.9C12 21.8 12 21.4 12.1 20.8ZM12.5 21.3C12.5 21.5 12.5 21.7 12.5 21.9C12.3 21.8 12.3 21.7 12.5 21.3ZM9.7 21.8C9.7 21.4 9.7 21 9.7 20.6C10 20.9 10 21.5 9.7 21.8ZM9.4 28.1C9.6 28.4 9.6 28.6 9.3 28.8C9.4 28.5 9.4 28.3 9.4 28.1ZM9.5 26.1C9.5 26.4 9.5 26.6 9.5 26.9C9.3 26.6 9.3 26.4 9.5 26.1ZM9.5 25.9H9.4C9.4 25.5 9.4 25.2 9.5 24.8C9.5 24.8 9.5 24.8 9.6 24.8C9.5 25.1 9.5 25.5 9.5 25.9ZM9.3 20.3C9.3 20.5 9.4 20.7 9.4 20.9H9.3C9.3 20.8 9.2 20.7 9.2 20.6C9.2 20.5 9.2 20.3 9.2 20.2C8.9 20.4 9.2 20.7 9.1 21C8.8 20.7 9 20.4 8.9 20.1C8.8 20.1 8.8 20.2 8.7 20.2C8.6 20.1 8.5 20 8.5 19.9C8.5 19.9 8.4 19.9 8.4 20C8.5 20.3 8.7 20.7 8.8 21H8.7C8.6 21 8.6 20.9 8.5 20.9C8.7 21.2 8.9 21.5 9.1 21.8C9.1 21.8 9.1 21.9 9 21.9C8.8 21.9 8.7 21.9 8.5 21.8C8.8 22 8.7 22.2 8.7 22.5C8.7 22.4 8.6 22.2 8.6 22.1C8.6 22.1 8.6 22.1 8.5 22.1C8.5 22.2 8.4 22.3 8.4 22.5C8.4 22.5 8.4 22.5 8.3 22.5C8.3 22.4 8.2 22.2 8.2 22.1H8.1C8.1 22.2 8.1 22.4 8.1 22.5C8.1 22.5 8.1 22.5 8 22.5C8 22.4 7.9 22.2 7.9 22.1C7.9 22.1 7.9 22.1 7.8 22.1C7.8 22.3 7.8 22.4 7.8 22.6H7.7C7.7 22.5 7.6 22.4 7.5 22.2C7.5 22.3 7.5 22.4 7.5 22.4C7.5 22.5 7.4 22.6 7.4 22.7C7.4 22.6 7.3 22.5 7.3 22.4C7.3 22.3 7.3 22.3 7.3 22.2C7.1 22.5 7.4 22.9 7.1 23.2C7.1 22.9 7.1 22.7 7 22.5C7 22.5 7 22.5 6.9 22.5C6.9 22.8 6.9 23.1 6.9 23.5C6.6 23.3 6.8 23 6.7 22.7C6.7 22.8 6.6 22.9 6.6 23H6.5C6.3 22.6 6.4 22.3 6.8 22.1C7.2 21.9 7.7 21.9 8.2 22C8.3 22 8.4 22 8.4 22C7.6 21.6 7.5 21 7.6 20.3C7.6 20 7.7 19.6 7.8 19.3C8.4 19.6 8.9 19.9 9.5 20.2C9.6 20.3 9.6 20.5 9.7 20.7C9.7 21.1 9.7 21.5 9.7 22C9.2 21.2 9.7 20.7 9.3 20.3ZM7 9.9C8 9.4 9.1 9.2 10.3 9.1C12 9 13.7 8.9 15.5 8.8C15.5 8.9 15.5 9 15.5 9.1C15.4 9 15.4 9 15.3 8.9C15.2 9 15.2 9 15.1 9.1C15.1 9.1 15 9 15.1 9C14.9 9 14.8 9.1 14.6 9.1C14.5 9.1 14.5 9.1 14.4 9.1C14 9.3 13.6 9.2 13.2 9.3C13.1 9.3 13 9.4 12.9 9.4L12.8 9.3C12.7 9.3 12.7 9.4 12.6 9.5C12.6 9.4 12.5 9.4 12.5 9.4C12.4 9.5 12.3 9.5 12.2 9.6C12.2 9.6 12.2 9.6 12.2 9.5C12.2 9.6 12.1 9.7 12.1 9.8C12 9.7 12 9.6 11.9 9.5C11.8 9.6 11.8 9.7 11.7 9.7C11.7 9.6 11.6 9.6 11.6 9.5C11.5 9.6 11.5 9.7 11.4 9.7C11.4 9.6 11.4 9.6 11.3 9.5C10.9 9.6 10.6 9.7 10.2 9.8C10 9.8 9.8 9.8 9.6 9.8C9.4 9.8 9.1 9.8 8.9 9.9C8.8 9.9 8.7 9.9 8.6 10C7.9 10.3 7.2 10.5 6.5 10.8C6.4 10.2 6.4 10.2 7 9.9ZM0.600002 15.7C0.500002 15.5 0.500002 15.2 0.600002 15.1C0.800002 14.7 0.999999 14.2 1.3 13.8C1.5 13.4 1.9 13.1 2.1 12.7C2.4 12.2 2.7 11.7 3 11.2C3.2 11.5 3.2 11.9 3.1 12.2C2.9 12.6 2.7 12.9 2.5 13.3C2.3 13.6 2.1 14 1.9 14.3L2 14.4C2.1 14.3 2.2 14.3 2.3 14.2C2.5 13.8 2.7 13.4 3 13C3.3 13.4 3.1 13.8 3.1 14.2H3C3 14.1 3 13.9 3 13.8C2.8 13.9 2.8 13.9 2.9 14.3C2.9 14.5 3 14.7 2.7 14.9C2.7 14.6 2.7 14.5 2.7 14.3H2.6C2.6 14.7 2.6 15.2 2.6 15.7C2.2 15.5 2.5 15.2 2.4 15H2.3C2.3 15.4 2.3 15.9 2.2 16.4C2.1 16.4 2 16.4 1.9 16.4C1.9 16.6 1.9 16.9 1.9 17.2C1.8 17.1 1.7 17.1 1.6 17C1.7 17.2 1.8 17.3 1.9 17.4C1.9 17.4 1.9 17.4 1.8 17.5C1.7 17.3 1.5 17.2 1.4 17C0.999997 16.5 0.800002 16.1 0.600002 15.7ZM1.9 18.6H2C2 19.1 2.1 19.7 2.1 20.2H2C1.7 19.7 1.9 19.2 1.9 18.6ZM1.8 20.9H1.7C1.6 19.8 1.5 18.7 1.4 17.6C1.5 17.8 1.7 18 1.8 18.2V18.3C1.8 19.2 1.8 20 1.8 20.9ZM1.3 20.6C1.3 20.3 1.3 20.1 1.2 19.8H1.3C1.5 20 1.4 20.3 1.4 20.6C1.4 20.6 1.4 20.6 1.3 20.6ZM2.1 24.9H2C2 24.8 1.9 24.7 1.8 24.5C1.8 24.7 1.7 24.8 1.7 24.9C1.7 24.9 1.7 24.9 1.6 24.9C1.6 24.8 1.5 24.7 1.5 24.6C1.4 24.6 1.4 24.6 1.3 24.7C1.3 24.6 1.2 24.5 1.2 24.3C1.4 24.1 1.6 24.2 1.9 24.4C1.9 24.2 1.9 24 1.9 23.8H2C2.2 24.2 2 24.5 2.1 24.9ZM2.2 25C2.2 24.8 2.2 24.6 2.2 24.3C2.4 24.5 2.4 24.6 2.2 25ZM3.5 24.5H3.4C3.4 24.4 3.4 24.3 3.3 24.1C3 24.3 3.3 24.5 3.2 24.7C2.9 24.4 3.2 24.1 3 23.8C2.9 23.8 2.7 23.8 2.6 23.8C2.6 23.9 2.6 24 2.5 24.1H2.4C2.4 23.9 2.4 23.7 2.4 23.5H2.3C2.3 23.6 2.2 23.8 2.2 23.9H2.1C2.1 23.7 2.1 23.6 2 23.4C1.7 23.5 1.7 23.3 1.6 23.1C1.6 23.3 1.6 23.6 1.6 23.8C1.2 23.5 1.4 23.1 1.4 22.7C2.2 23 3 23.3 3.3 24.1C3.5 24.3 3.5 24.4 3.5 24.5ZM4.2 23.5C4.1 23.8 4.1 24 4.1 24.3C4.1 24.6 4.1 24.9 4.1 25.1C3.9 25 3.9 25 4 24C3.9 24 3.9 24.1 3.8 24.1C3.8 24 3.7 23.8 3.7 23.7C3.8 23.1 4.6 22.5 5.2 22.7C5.4 22.7 5.5 22.8 5.4 23C5.4 23.1 5.4 23.3 5.3 23.5C5.3 23.3 5.3 23.1 5.2 22.9H5.1C5.1 23.1 5 23.3 5 23.5H4.9C4.9 23.3 4.9 23.2 4.9 23H4.8C4.8 23.1 4.8 23.2 4.7 23.3C4.7 23.4 4.7 23.5 4.6 23.6H4.5C4.5 23.5 4.5 23.3 4.4 23.1C4.4 23.4 4.3 23.6 4.3 23.8H4.2C4.2 23.7 4.2 23.6 4.2 23.5ZM4.7 27.5C4.6 27.5 4.6 27.5 4.7 27.5C4.6 27.1 4.6 26.7 4.6 26.3C4.9 26.7 4.7 27.1 4.7 27.5ZM5 28.3C4.8 28.1 4.8 27.9 5 27.6C5 27.8 5 28 5 28.3ZM4.9 27.3C4.9 27 4.9 26.7 4.9 26.4C5.1 26.8 5.1 27.1 4.9 27.3ZM5.2 28.3C5.2 28.1 5.2 27.8 5.2 27.6H5.3C5.3 27.8 5.3 28.1 5.3 28.3H5.2ZM5.5 30.9C5.2 30.6 5.4 30.4 5.4 30.1C5.8 30.3 5.5 30.6 5.5 30.9ZM5.5 29.8C5.5 29.6 5.5 29.3 5.5 29C5.7 29.4 5.7 29.7 5.5 29.8ZM5.9 32.4C5.7 31.9 5.7 31.5 5.8 31C6 31.5 5.8 31.9 5.9 32.4ZM5.8 30.7H5.7C5.7 30.5 5.7 30.3 5.7 30.1H5.8C5.8 30.2 5.9 30.3 5.9 30.4C5.9 30.4 5.9 30.6 5.8 30.7ZM6.2 32.4C6 31.9 6.1 31.5 6.1 31H6.2C6.2 31.4 6.2 31.9 6.2 32.4ZM6.5 32.3C6.5 32.3 6.4 32.3 6.5 32.3C6.4 31.9 6.4 31.6 6.4 31.2C6.4 31.2 6.4 31.2 6.5 31.2C6.5 31.5 6.5 31.9 6.5 32.3ZM7.4 32C7.3 32 7.3 32 7.4 32C7.3 31.7 7.3 31.4 7.3 31.2C7.3 31.2 7.3 31.2 7.4 31.2C7.4 31.4 7.4 31.7 7.4 32ZM7.6 26.5H7.7C7.7 26.8 7.7 27 7.8 27.3C7.5 27.2 7.5 27.2 7.6 26.5ZM8 26.8C8 27 8.1 27.2 8.1 27.4C7.8 27.3 7.8 27.2 8 26.8ZM8.2 33C8.2 32.9 8.2 32.9 8.2 33C8.1 32.8 8.1 32.5 8.1 32.3C8.1 32.3 8.1 32.3 8.2 32.3C8.2 32.5 8.2 32.7 8.2 33ZM8.3 31.4H8.2C8.2 31.2 8.2 30.9 8.2 30.6C8.5 31 8.2 31.2 8.3 31.4ZM8.3 29.9H8.2C8.2 29.5 8.2 29.2 8.3 28.8C8.4 29 8.5 29.5 8.3 29.9ZM8.2 26.3C8.4 26.5 8.3 26.8 8.3 27C8.1 26.8 8.1 26.6 8.2 26.3ZM8.7 27.1C8.5 27 8.4 26.7 8.6 26.2C8.8 26.6 8.6 26.8 8.7 27.1ZM8.6 30.3C8.6 30.3 8.5 30.3 8.6 30.3C8.5 29.8 8.5 29.3 8.5 28.7C8.8 29.3 8.6 29.8 8.6 30.3ZM8.5 28.6C8.5 28.4 8.5 28.3 8.5 28.1C8.7 28.2 8.7 28.4 8.5 28.6ZM8.9 31.1C8.9 31.2 8.9 31.4 8.9 31.5H8.8C8.8 30.4 8.8 29.2 8.8 28.1H8.9C8.9 28.2 9 28.2 9 28.3C9 29.1 9 29.9 8.9 30.6C8.9 30.8 8.9 31 8.9 31.1ZM9.2 32.8C9.1 32.8 9.1 32.8 9.2 32.8C9.1 32.5 9.1 32.3 9.1 32H9.2C9.2 32.3 9.2 32.5 9.2 32.8ZM9.2 31.5C8.9 31 9.1 30.5 9.1 30C9.4 30.5 9.1 31 9.2 31.5ZM9.1 29.3C9.1 28.8 9.1 28.4 9.1 28C9.3 28.3 9.3 28.9 9.1 29.3ZM9.2 23.9C8.8 24.2 8.7 24.5 9.1 24.9C8.9 25.3 8.6 25.5 8.2 25.7C7.7 25.9 7.1 26 6.5 26C6 26.1 5.4 26 4.9 26C4.9 25.4 4.9 25.4 4.2 25.3C4.4 24.8 4 24.3 4.5 23.9C4.4 24.3 4.7 24.3 4.9 24.3C5.2 24.3 5.6 24.2 5.7 23.9C5.9 23.5 5.7 23.2 5.5 23C5.5 23.1 5.5 23.2 5.4 23.4C5.3 23.6 5.4 23.6 5.4 23.8H5.3C5.3 23.6 5.3 23.3 5.3 23.1C5.3 23.1 5.4 23.1 5.5 23C5 22.5 4.5 22.6 3.9 22.9C3.6 21.9 3.3 20.9 3.1 19.8C2.9 19 2.8 18.2 2.8 17.5C2.8 14.9 4.1 13 6.4 11.8C7.9 11 9.5 10.6 11.1 10.4C11.5 10.3 11.9 10.3 12.3 10.2C12.3 10.2 12.3 10.2 12.3 10.1H12.4C13 10 13.5 9.9 14.1 9.8C14.5 9.7 14.9 9.5 15.4 9.4H15.5C16.4 9.4 17.1 8.8 17.6 8.1H17.7C17.7 8.2 17.7 8.4 17.6 8.5C17.5 8.7 17.3 8.8 17.2 8.9C17 9.1 16.9 9.3 16.8 9.6C16.7 9.8 16.5 10 16.3 10.1C16.1 10.3 15.8 10.4 15.6 10.6C15.3 10.8 15 11.1 14.7 11.3C14.4 11.5 14 11.6 13.7 11.7C13.5 11.8 13.3 11.8 13.4 12.1C13.4 12.1 13.3 12.2 13.2 12.2C13.2 12.1 13.2 12 13.2 12C13 11.9 12.3 12.4 12 12.8C12 12.7 11.9 12.6 11.9 12.6C11.8 12.6 11.8 12.7 11.7 12.7C11.7 12.4 11.7 12.2 11.6 12H11.5C11.5 12.1 11.4 12.3 11.4 12.4C11.4 12.5 11.4 12.7 11.4 12.8H11.3C11.3 12.6 11.3 12.5 11.3 12.3H11.2C11.2 12.4 11.2 12.6 11.2 12.7C11.2 12.8 11.1 12.9 11.1 12.9C11.1 12.8 11 12.7 11 12.7V12.6H10.9C10.9 12.8 10.9 12.9 10.9 13.1C10.8 13.1 10.7 13 10.6 13C10.6 13.1 10.6 13.2 10.6 13.3C10.5 13.3 10.5 13.3 10.4 13.2C10.3 13.3 10.2 13.5 10.1 13.6C10.1 13.6 10.1 13.6 10 13.6C10 13.7 10 13.8 9.9 13.9C9.6 14.2 9.2 14.5 8.9 14.8C8.7 15.3 8.6 15.7 8.4 16.2H8.3C8.4 15.9 8.5 15.6 8.6 15.2C8.5 15.3 8.5 15.4 8.4 15.6C8.4 15.2 8.4 14.8 8.4 14.5H8.3C8.3 15.1 8.3 15.7 8.3 16.3C8.2 16.3 8.2 16.3 8.1 16.3C8.1 16 8.1 15.6 8.1 15.3H8C7.7 15.8 8.2 16.5 7.6 17C7.7 17 7.8 17 7.9 16.9C7.7 17.3 7.5 17.5 7.3 17.8C7.4 17.6 7.6 17.5 7.7 17.3C7.7 17.3 7.8 17.3 7.8 17.4C7.6 17.7 7.9 18.1 7.5 18.4C7.4 18.5 7.4 18.8 7.4 19C7.5 19.6 7.5 20.2 7.4 20.8C7.3 21.1 7.4 21.3 7.4 21.6C7.4 21.6 7.3 21.6 7.3 21.5C6.8 21 6.4 20.4 6.3 19.6C6.3 19.5 6.3 19.5 6.2 19.4C5.7 18.5 5.7 17 6.2 16C6.5 16.1 6.6 16.4 6.7 16.6C6.8 17.2 6.8 17.8 6.8 18.4C6.8 18.8 6.8 19.1 6.8 19.5C7 18.5 7.1 17.5 6.8 16.4C6.6 15.6 6.7 15 7.2 14.3C7.5 13.9 7.8 13.4 8.1 13C8.2 13.1 8.2 13.1 8.3 13.8C8.4 13.7 8.5 13.6 8.5 13.5C8.6 13.2 8.7 13 9 12.8C9.5 12.5 9.9 12.2 10.4 11.9C11 11.5 11.7 11.2 12.4 10.8C12.3 11.1 12.1 11.3 12 11.6C13.6 11 15.2 10.7 16.4 9.7C15.2 10.3 14 11 12.6 11.2C12.6 10.9 12.5 10.6 12.5 10.3C12.5 10.3 12.4 10.3 12.4 10.2H12.3C12.3 10.3 12.2 10.3 12.2 10.4C12.1 10.8 11.8 10.9 11.4 11.1C10.8 11.4 10.2 11.7 9.7 12C9.4 12.2 9.1 12.4 8.8 12.6C8.4 12.9 8.4 12.9 8.2 12.5C7.5 13.5 6.7 14.3 6.5 15.6C6.4 15.5 6.3 15.5 6.2 15.4C5.8 15.9 5.7 16.4 5.6 17C5.5 18.5 6 19.9 6.8 21.2C6.9 21.3 6.9 21.4 7 21.5C6.8 21.5 6.7 21.6 6.6 21.6C6.1 21.7 5.9 22.1 6 22.6C6.1 23 6.3 23.3 6.7 23.5C7.1 23.8 7.6 23.6 7.8 23.1C8 22.7 8.3 22.6 8.6 22.9C8.8 23.1 8.9 23.4 9.1 23.6C9.3 23.7 9.3 23.9 9.2 23.9ZM9 24.7C9 24.4 9 24.3 9.1 24.1H9.2C9.3 24.3 9.3 24.5 9 24.7ZM9.4 29.1C9.5 29.1 9.5 29.1 9.4 29.1C9.5 29.3 9.5 29.5 9.6 29.7C9.6 29.4 9.7 29.2 9.7 28.9C9.7 28.9 9.7 28.9 9.8 28.9C9.8 29.3 9.8 29.8 9.8 30.2C9.8 30.2 9.8 30.2 9.7 30.2C9.7 30 9.6 29.8 9.6 29.6C9.5 29.7 9.5 29.8 9.4 29.9H9.3C9.4 29.6 9.4 29.4 9.4 29.1ZM9.6 30.5C9.8 30.6 9.9 30.9 9.7 31.4C9.5 31.1 9.7 30.8 9.6 30.5ZM9.4 31.5C9.4 31.1 9.4 30.7 9.4 30.4C9.7 30.6 9.7 31.2 9.4 31.5ZM9.8 32.3H9.7C9.7 32.1 9.7 31.8 9.7 31.6C9.9 31.7 9.9 31.8 9.8 32.3ZM9.8 27C9.6 26.7 9.8 26.4 9.7 26.1H9.8C9.9 26.4 9.8 26.7 9.8 27ZM9.8 25.7C9.8 25.4 9.8 25 9.8 24.7C9.8 24.7 9.8 24.7 9.9 24.7C9.8 25 9.8 25.3 9.8 25.7ZM10 30.2C9.9 29.7 9.9 29.3 10 28.8C10.2 29.3 10.2 29.8 10 30.2ZM10 25.7C10 25.3 10 25 10 24.6C10 24.6 10 24.6 10.1 24.6C10.1 24.9 10.1 25.3 10 25.7C10.1 25.7 10.1 25.7 10 25.7ZM10 30.5C10.3 30.7 10.1 31 10.1 31.3C9.8 31.1 10 30.8 10 30.5ZM10 32.6C10 32.3 10 32 10 31.7C10.2 31.9 10.2 32.2 10 32.6ZM9.8 24.2C9.8 24.1 9.7 24.1 9.6 23.9C9.5 24.1 9.5 24.2 9.5 24.3C9.4 24.1 9.4 23.9 9.6 23.9C9.8 23.8 10 23.8 10.2 23.8C10.3 23.8 10.3 23.9 10.4 24C10.3 24.1 10.3 24.1 10.2 24.2C10.1 24.1 9.9 24.1 9.8 24.2ZM10.3 29.9C10.5 30 10.5 30 10.4 30.5C10.2 30.4 10.2 30.3 10.3 29.9ZM10.4 31.3C10.2 31.2 10.1 31 10.4 30.7C10.4 30.9 10.4 31.1 10.4 31.3ZM10.4 32.5C10.1 32.2 10.3 31.8 10.3 31.5C10.6 31.8 10.3 32.2 10.4 32.5ZM10.9 32.1C10.7 31.9 10.8 31.6 10.8 31.4C11.1 31.6 11 31.9 10.9 32.1ZM12 31.9C12 32 11.9 32.2 11.9 32.3H11.8C11.8 32.1 11.8 31.8 11.8 31.6H11.7C11.7 31.9 11.7 32.1 11.7 32.4C11.6 32.4 11.6 32.4 11.5 32.4C11.5 32.2 11.4 32 11.4 31.9C11.4 32.1 11.4 32.3 11.3 32.5H11.2C11.2 32.2 11.2 31.8 11.2 31.4C11.3 31.4 11.3 31.4 11.4 31.4C11.9 31.2 12 31.4 12 31.9ZM13.3 32.2C13.3 31.9 13.3 31.8 13.3 31.5C13 31.7 13.2 32 13.1 32.2C12.6 32.1 12.2 31.7 12.1 31.3C12.1 31.2 12.1 31.1 12.2 31.1C12.5 30.9 13.3 31 13.5 31.4C13.5 31.7 13.5 31.9 13.3 32.2ZM14.6 32.1C14.6 32.1 14.5 32.1 14.6 32.1C14.5 32 14.5 31.8 14.4 31.7C14.4 31.7 14.4 31.7 14.3 31.7C14.3 31.8 14.2 32 14.2 32.2C14.1 32.1 14.1 31.9 14.1 31.8C14.1 31.9 14.1 32 14.1 32.2H14C14 32.1 14 32 14 31.9C13.6 31.8 13.6 31.8 13.5 31.1C13.8 31.1 14 31.1 14.3 31.1H14.4C14.5 31.2 14.7 31.8 14.6 32.1ZM15.7 31.9C15.7 31.8 15.6 31.6 15.6 31.5C15.6 31.7 15.6 31.8 15.6 32H15.5C15.5 31.9 15.4 31.8 15.4 31.6C15.3 31.8 15.3 31.9 15.3 32.1C15 31.7 14.8 31.3 14.6 30.9C15 30.9 15.3 30.9 15.6 30.9C15.7 30.9 15.7 31 15.8 31C16 31.3 16.1 31.6 16.3 31.8C16 31.9 15.8 31.9 15.7 31.9ZM16.7 31.9H16.6C16.6 31.7 16.6 31.5 16.6 31.3H16.5C16.5 31.5 16.4 31.7 16.3 32C16.1 31.6 15.9 31.3 15.6 30.9C16 30.8 16.3 30.8 16.7 30.9C16.8 30.9 16.8 31 16.8 31.1C16.8 31.3 16.8 31.6 16.7 31.9ZM18.5 31.9C18.4 31.8 18.4 31.7 18.3 31.6C18.3 31.7 18.3 31.8 18.2 31.9H18.1C18.1 31.7 18 31.6 18 31.4C18 31.6 18 31.7 18 31.9C17.8 31.9 17.8 31.9 17.7 31.4C17.7 31.5 17.6 31.7 17.6 31.8C17.5 31.7 17.3 31.6 17.2 31.5C17 31.3 16.8 31.1 16.9 30.7C14.7 30.9 12.6 31.1 10.5 31.3C10.5 31.2 10.5 31 10.5 30.8C10.6 30.8 10.6 30.9 10.7 30.9C10.8 30.7 11.1 30.6 11.3 30.8C11.7 30.7 11.9 30.3 12.4 30.4C12.5 30.4 12.6 30.4 12.6 30.3C12.8 30 13.1 29.6 13.3 29.2C13.4 28.9 13.2 28.7 13 28.5C12.8 28.4 12.6 28.3 12.4 28.1C12.4 28 12.4 27.9 12.4 27.8C12.4 27.9 12.3 28 12.3 28.2C12.1 28.1 12 28.1 11.9 28C11.8 27.9 11.8 27.7 11.8 27.5H11.9C11.9 27.7 12 27.8 12 28H12.1C12.1 27.8 12.1 27.6 12.1 27.4C12.1 27.4 12.1 27.4 12.2 27.4C12.3 27.5 12.3 27.6 12.4 27.7C12.4 27.6 12.4 27.6 12.4 27.5C12.4 27.4 12.5 27.4 12.5 27.3C12.5 27.4 12.6 27.4 12.6 27.5C12.6 27.6 12.6 27.7 12.6 27.7H12.7C12.7 27.6 12.7 27.5 12.7 27.4C12.7 27.4 12.7 27.3 12.8 27.3H12.9C13 27.4 13.1 27.5 13.2 27.6C13.3 27.5 13.4 27.5 13.5 27.4C13.5 27.5 13.6 27.6 13.6 27.7C13.6 27.6 13.6 27.4 13.6 27.3H13.5C13.1 27 12.6 27.1 12.2 27.3C12 27.4 11.7 27.4 11.5 27.4C11.3 27.4 11.1 27.3 11 27.1C13.6 26.9 16.1 26.5 18.7 26.6C18.3 26.6 17.9 27 17.4 26.8C16.8 26.6 16.2 26.7 15.6 27.1C15.7 27.2 15.7 27.3 15.8 27.5C15.8 27.5 15.8 27.5 15.9 27.5C15.9 27.4 15.9 27.2 15.9 27C16.6 26.9 17.3 26.6 17.9 27.3C18.3 26.9 18.7 26.7 19.2 26.9C19.1 26.8 19.1 26.8 18.9 26.7C19.7 26.6 20.4 26.4 21 26.8V26.9C20.4 26.9 19.8 26.9 19.1 26.9C19.2 27 19.2 27.1 19.3 27.2C19.6 27.2 19.8 27.2 20.1 27.1C20.1 27.1 20.1 27.2 20.1 27.3C20.1 28.3 20.1 29.3 20.1 30.2C20.1 30.4 20 30.5 19.8 30.5C19.7 30.5 19.7 30.5 19.6 30.5C19.3 30.5 19.2 30.4 19.3 30.1C19.3 30 19.3 29.9 19.3 29.9H19.2C19.2 30.1 19.2 30.3 19.2 30.6C18.6 30.6 18 30.6 17.4 30.6V30.7C17.5 30.7 17.7 30.7 17.8 30.7C18.2 30.7 18.3 30.7 18.4 31.1C18.4 31.2 18.5 31.3 18.6 31.5C18.5 31.6 18.5 31.7 18.5 31.9ZM19.4 31.9H19.3C19.3 31.7 19.2 31.4 19.2 31.2C19.2 31.4 19.2 31.6 19.2 31.9C18.9 31.7 19 31.4 18.9 31.3C18.9 31.4 18.9 31.5 18.9 31.7C18.7 31.4 18.5 31.1 18.4 30.8C18.8 30.6 19.1 30.6 19.3 30.8C19.5 31.1 19.6 31.5 19.4 31.9ZM20.6 31.8C20.5 31.6 20.5 31.4 20.5 31.1H20.4C20.4 31.2 20.3 31.3 20.3 31.4C20.3 31.5 20.3 31.6 20.2 31.7C20.2 31.5 20.2 31.2 20.2 31H20.1C20.1 31.2 20 31.4 20 31.6C20 31.6 20 31.6 19.9 31.6C19.9 31.4 19.9 31.2 19.9 31H19.8C19.8 31.1 19.7 31.2 19.6 31.3C19.5 31.1 19.5 30.9 19.4 30.6C19.8 30.6 20.2 30.5 20.5 30.8C20.8 31.2 20.7 31.5 20.6 31.8ZM21 30.6C20.7 30.6 20.5 30.6 20.2 30.5C20.2 29.3 20.2 28.1 20.2 26.9C20.5 26.8 20.6 26.9 20.7 27.4C20.8 27.3 20.8 27.1 20.9 27H21C21 28.3 21 29.4 21 30.6ZM20.5 26.3C20.3 26.3 20.2 26.3 20 26.3C19.9 25.9 19.7 25.6 19.6 25.2H19.7C19.8 25.3 20 25.3 20.1 25.4C20.1 25.6 20.1 25.8 20.1 26.1C20.3 25.8 20 25.5 20.4 25.3C20.4 25.6 20.4 25.9 20.4 26.2H20.5C20.5 26.1 20.5 25.9 20.5 25.8C20.5 25.7 20.5 25.5 20.5 25.4C20.8 25.4 20.8 25.6 20.7 25.8C20.7 25.9 20.7 26.1 20.7 26.2H20.8C20.8 26.1 20.8 26 20.8 25.9C20.8 25.9 20.8 25.9 20.9 25.9C20.9 26.1 21 26.3 21.1 26.5C20.8 26.3 20.7 26.3 20.5 26.3ZM19.7 24.3H19.8C19.8 24.5 19.8 24.8 19.9 25C19.6 24.9 19.6 24.8 19.7 24.3ZM20 24.5H20.1C20.1 24.7 20.1 24.9 20.2 25.1H20.1C19.8 24.9 19.9 24.7 20 24.5ZM20.3 25C20.3 24.8 20.3 24.7 20.3 24.5C20.5 24.7 20.5 24.8 20.3 25ZM21.3 26H21.2C21.2 25.7 21.1 25.5 21.1 25.2H21.2C21.5 25.4 21.3 25.8 21.3 26ZM21.6 26.9C21.4 26.9 21.1 27.1 21.1 26.7C21.5 26.6 21.6 26.6 21.6 26.9ZM21.3 31.8C21.1 31.6 21.1 31.5 21.2 30.9C21.4 31 21.4 31.1 21.3 31.8ZM21.4 31.9C21.4 31.6 21.4 31.2 21.4 30.9H21.5C21.7 31.2 21.6 31.5 21.4 31.9ZM21.4 30.7C21.4 30 21.4 29.3 21.4 28.6H21.3C21.3 29.3 21.3 29.9 21.3 30.6C20.9 30.2 21.1 28.7 21.2 27.4C21.2 27.7 21.3 27.9 21.4 28.2C21.4 27.8 21.5 27.5 21.5 27.1C21.7 27.5 21.7 30.4 21.4 30.7ZM21.4 26.3C21.4 25.9 21.5 25.6 21.5 25.3C21.7 25.7 21.7 26.1 21.4 26.3ZM21.8 31.9C21.6 31.6 21.7 31.2 21.8 30.9H21.9C21.9 31.2 21.9 31.6 22 31.9C21.9 31.9 21.8 31.9 21.8 31.9ZM21.9 30.7C21.7 30.6 21.7 30.3 21.7 30.2C21.7 29.2 21.7 28.1 21.8 27.1C21.8 27.1 21.8 27.1 21.8 27C21.9 27.1 22 29.9 21.9 30.7ZM22 26.2C22.1 26.1 22.1 25.9 22.2 25.8C22.2 26 22.3 26.2 22.3 26.4C22.1 26.4 22 26.4 21.8 26.4C21.8 26 21.8 25.7 21.8 25.4H21.9C21.9 25.5 21.9 25.7 21.9 25.8C21.9 25.9 21.9 26.1 21.8 26.2C21.9 26.2 22 26.2 22 26.2ZM22.4 28.3C22.3 28 22.5 27.6 22.5 27.3C22.5 27.6 22.5 28 22.5 28.3C22.5 28.3 22.4 28.3 22.4 28.3ZM22.5 28.7C22.5 29 22.5 29.2 22.5 29.6C22.3 29.2 22.2 29 22.5 28.7C22.4 28.7 22.4 28.7 22.5 28.7ZM22.4 26.9C22.2 26.9 22 26.9 21.8 26.8V26.7C22 26.7 22.2 26.7 22.4 26.8C22.4 26.8 22.4 26.8 22.4 26.9ZM22.1 27.2C22.1 27.2 22.2 27.2 22.1 27.2C22.2 27.6 22.2 28.1 22.2 28.5H22.1C21.8 28.1 22.3 27.7 22.1 27.2ZM22.2 31.5C22.1 31.5 22.1 31.5 22.2 31.5C22.1 31.3 22 31.1 22 30.9C22.2 31 22.2 31 22.2 31.5ZM22.2 30.7C21.9 30.3 22.1 29.9 22.1 29.4C22.4 29.8 22.1 30.2 22.2 30.7ZM22.4 29.9C22.6 30 22.6 30.2 22.5 30.8C22.3 30.5 22.2 30.3 22.4 29.9ZM22.5 31.9H22.4C22.4 31.6 22.4 31.3 22.3 30.9C22.6 31.1 22.6 31.1 22.5 31.9ZM22.5 26.1C22.2 25.9 22.3 25.6 22.4 25.3C22.7 25.6 22.5 25.9 22.5 26.1ZM22.8 32C22.5 31.7 22.7 31.4 22.7 31.1H22.8C22.8 31.4 22.8 31.7 22.8 32ZM22.7 30.8C22.7 30.6 22.7 30.4 22.7 30.2H22.8C22.8 30.4 22.8 30.6 22.8 30.8H22.7ZM22.8 29.7C22.7 29.7 22.7 29.7 22.8 29.7C22.7 29.2 22.7 28.8 22.7 28.3H22.8C22.8 28.8 22.8 29.2 22.8 29.7ZM22.8 28C22.8 28 22.7 28 22.8 28C22.7 27.8 22.7 27.5 22.7 27.2C23 27.5 22.7 27.7 22.8 28ZM22.7 26.4C22.7 26.1 22.7 25.7 22.7 25.4C23 25.6 23 26 22.7 26.4ZM23.1 29.8C23.1 29.8 23 29.8 23.1 29.8C23 29.3 23 28.8 23 28.3C23.3 28.8 23.1 29.3 23.1 29.8ZM23.1 28H23C23 27.8 23 27.6 23 27.4C23.2 27.6 23.3 27.7 23.1 28ZM23.1 26.5C23.1 26.5 23 26.5 23.1 26.5C23 26.2 23 25.8 23 25.5C23 25.5 23 25.5 23.1 25.5C23.3 25.9 23.4 26.2 23.6 26.6C23.5 26.6 23.5 26.6 23.4 26.7C23.3 26.6 23.3 26.4 23.3 26.3C23.2 26.3 23.1 26.4 23.1 26.5ZM23.3 27.3C23.6 27.5 23.6 27.7 23.3 28.1C23.3 27.8 23.3 27.5 23.3 27.3ZM23.3 28.2C23.6 28.4 23.5 28.6 23.3 28.8C23.3 28.6 23.3 28.4 23.3 28.2ZM23.7 32.1C23.6 32.1 23.6 32.1 23.7 32.1C23.6 31.8 23.6 31.5 23.6 31.2C23.6 31.2 23.6 31.2 23.7 31.2C23.7 31.4 23.7 31.8 23.7 32.1ZM24.2 30.3C24.2 30.1 24.2 29.9 24.2 29.7C24.5 30.1 24.4 30.2 24.2 30.3ZM24.6 32C24.6 32 24.5 32 24.6 32C24.4 31.7 24.5 31.4 24.5 31.1C24.6 31.1 24.6 31.1 24.7 31.1C24.6 31.4 24.6 31.7 24.6 32ZM24.5 30.4C24.5 30.2 24.5 30 24.5 29.8C24.8 30 24.8 30.1 24.5 30.4ZM24.8 32.2C24.7 31.9 24.7 31.6 24.7 31.3C25.1 31.6 24.9 31.9 24.8 32.2ZM24.9 29.6H24.8C24.8 29.4 24.8 29.2 24.8 29.1H24.7C24.7 29.3 24.7 29.5 24.7 29.7H24.6C24.6 29.6 24.5 29.4 24.5 29.3C24.5 29.4 24.5 29.5 24.4 29.5C24.2 29.5 23.9 29.5 23.8 29.4C23.6 29.3 23.5 29.2 23.4 29C23.5 28.9 23.6 28.8 23.7 28.8C24 28.8 24.3 28.8 24.7 28.8C24.8 28.8 25 28.9 25 28.9C25 29.2 24.9 29.4 24.9 29.6ZM23.6 28C23.6 27.7 23.6 27.5 23.6 27.3C23.9 27.5 23.9 27.6 23.6 28ZM23.8 28.2C23.8 28.3 23.8 28.5 23.7 28.6H23.6C23.6 28.4 23.6 28.3 23.6 28.1L23.7 28C23.7 28.1 23.8 28.2 23.8 28.2ZM23.6 26.1C23.6 25.9 23.5 25.7 23.5 25.4C23.8 25.6 23.9 25.7 23.6 26.1ZM24 27.9H23.9C23.9 27.7 23.9 27.5 23.9 27.3C24.1 27.4 24.1 27.5 24 27.9ZM24 28.7C23.8 28.4 23.9 28.2 23.9 28C24.2 28.2 24.1 28.4 24 28.7ZM24 25.4C23.8 25.2 23.8 25.1 24 24.9C24 25 24 25.2 24 25.4ZM24 25.6C24 25.9 24 26.2 24 26.5C23.8 26.3 23.8 26.1 24 25.6ZM24.1 26.7C24.1 26.4 24.2 26.1 24.2 25.8C24.5 26 24.5 26.4 24.1 26.7ZM24.2 28C24.2 27.8 24.2 27.5 24.2 27.2C24.5 27.5 24.5 27.8 24.2 28ZM24.4 28.2H24.5C24.7 28.4 24.6 28.6 24.6 28.8H24.5C24.5 28.5 24.5 28.4 24.4 28.2ZM24.8 25.8H24.9C24.9 26 24.9 26.3 24.9 26.5H24.8C24.8 26.2 24.8 26 24.8 25.8ZM25 30.4C25 30.2 25 30 25.1 29.8C25.3 30 25.3 30.2 25 30.4ZM25.2 23.8C25.4 23.7 25.5 23.6 25.6 23.5C25.6 23.5 25.7 23.5 25.7 23.6C25.7 23.7 25.7 23.8 25.7 23.9C25.5 23.8 25.4 23.8 25.2 23.8ZM25.4 28.6C25.5 28.6 25.5 28.6 25.4 28.6C25.5 29.1 25.5 29.6 25.5 30H25.4C25.4 29.6 25.4 29.1 25.4 28.6ZM25.2 24.4C25.2 24.8 25.3 25.1 25.3 25.5C25.2 25.5 25.2 25.5 25.1 25.5C25.1 25.1 25.1 24.8 25 24.4C25.2 24.4 25.2 24.4 25.2 24.4ZM25.2 25.9C25.2 26.2 25.2 26.5 25.2 26.7C25.2 26.7 25.2 26.7 25.1 26.7C25.2 26.5 25.2 26.2 25.2 25.9ZM25.5 31.9H25.4C25.4 31.7 25.4 31.5 25.3 31.3H25.4C25.7 31.5 25.5 31.7 25.5 31.9ZM25.6 25.5C25.5 25.5 25.5 25.5 25.6 25.5C25.5 25 25.5 24.5 25.5 24.1H25.6C25.8 24.6 25.5 25 25.6 25.5ZM25.9 30C25.8 30 25.8 30 25.9 30C25.8 29.5 25.8 29 25.8 28.5H25.9C25.9 29.1 25.9 29.5 25.9 30ZM25.8 25.7C25.8 25.2 25.8 24.7 25.8 24.3C26 24.4 26 25.2 25.8 25.7ZM26 22.9C26 23 25.9 23.1 25.8 23.1C25.7 23.2 25.5 23.2 25.4 23.3C25.2 23.4 25.1 23.6 25.1 23.8C25.1 24.3 25 24.8 24.9 25.3C24.9 25 24.9 24.7 24.9 24.3C24.6 24.4 24.3 24.6 24.1 24.6C23.7 24.7 23.9 25.1 23.7 25.3H23.6C23.6 25.1 23.6 24.9 23.7 24.7C22.3 24.7 20.9 24.6 19.6 23.9C19.8 23.3 19.6 23 18.9 22.7C18.8 22.1 19.2 21.8 19.6 21.5C19.7 21.6 19.8 21.7 19.8 21.7C19.9 22.1 20.2 22.1 20.5 22.1C21.3 22.1 21.8 21.7 21.8 21C21.8 20.3 21.2 19.7 20.4 19.6C20.3 19.6 20.1 19.6 20 19.6C20.2 19.1 20.4 18.6 20.5 18C20.9 16.3 20.8 14.6 20.2 12.9C19.9 11.8 19.5 10.7 19.2 9.6C19.1 9.2 19.1 8.8 19 8.5H19.1C19.2 8.6 19.2 8.7 19.3 8.8C19.5 9.7 20.1 10.4 20.9 10.9C21.8 11.5 22.8 11.9 23.7 12.4C24.6 12.9 25.5 13.5 26.2 14.3C26.8 15.1 27.1 15.9 27 16.9C27 17.1 27 17.2 27.2 17.2L27.3 17.3C27.3 17.8 27.3 18.2 27.2 18.7C26.9 18.3 27.2 17.8 27.1 17.4C26.8 18.4 26.6 19.4 26.3 20.5C26 20.2 25.6 20 25.2 20C24.8 20 24.3 20.1 24 20.3C23.3 20.8 23.2 21.5 23.8 22.1C23.9 22.2 24 22.2 24.2 22.2C24.5 22.1 24.9 21.9 25.3 21.9C25.7 21.9 26.1 22.4 26 22.9ZM21.2 20.6C21.2 20.5 21.3 20.5 21.3 20.4C21.3 20.5 21.4 20.5 21.4 20.6C21.4 20.8 21.3 21 21.3 21.2C21.2 21 21.2 20.8 21.2 20.6ZM21.3 10.4C21.6 10.5 21.8 10.6 22.1 10.8C22.1 10.9 22 11 22 11.2C21.9 11 21.9 10.9 21.9 10.8C21.8 10.9 21.8 11 21.7 11.2C21.7 11 21.7 10.9 21.7 10.7C21.6 10.8 21.5 10.8 21.5 10.9C21.3 10.6 21.3 10.5 21.3 10.4ZM23.1 11.2H23.2C23.2 11.3 23.3 11.5 23.3 11.6C23.2 11.6 23.2 11.6 23.1 11.6C23.1 11.5 23.1 11.4 23.1 11.2ZM24 11.1C24.2 11.3 24.4 11.5 24.6 11.7C24.6 11.7 24.7 11.7 24.8 11.7C24.8 11.8 24.8 11.9 24.8 12.1C24.9 12 25 12 25.1 11.8C25.1 12.1 25 12.4 25 12.6C25 12.6 25 12.6 24.9 12.6C24.9 12.5 24.9 12.3 24.8 12.1C24.7 12.3 24.6 12.3 24.6 12.4C24.2 12.2 23.8 12 23.4 11.7C23.3 11.6 23.3 11.5 23.3 11.3H23.4C23.6 11.4 23.7 11.5 24 11.7C24 11.5 24 11.3 24 11.1ZM25.4 12.9H25.3C25.3 12.6 25.3 12.3 25.3 12C25.6 12.3 25.4 12.6 25.4 12.9ZM26 13.4C25.8 13.3 25.6 13.1 25.5 12.9C25.4 12.7 25.5 12.4 25.5 12.2H25.6C25.6 12.4 25.7 12.7 25.7 12.9C25.7 12.7 25.7 12.6 25.7 12.4H25.8C26.2 12.7 26 13.1 26 13.4ZM26.2 12.9C26.5 13.2 26.3 13.5 26.3 13.8C26 13.5 26.2 13.2 26.2 12.9ZM26.5 13.2C26.8 13.6 26.6 14 26.6 14.4C26.4 14 26.5 13.6 26.5 13.2ZM26.8 13.6C27.1 14 26.9 14.5 26.9 15C26.6 14.6 26.8 14.1 26.8 13.6ZM27 14H27.1C27.1 14.1 27.2 14.1 27.2 14.2C27.2 15.1 27.2 16 27.2 16.9H27.1C27.1 15.9 27 15 27 14ZM25.6 21.4H25.5C25.5 21.2 25.4 21 25.4 20.8C25.4 20.9 25.4 21.1 25.4 21.2H25.3C25.2 21.1 25.2 20.9 25.1 20.7C25.1 20.8 25 20.8 24.9 20.9C24.9 20.8 24.8 20.7 24.8 20.6C24.8 20.8 24.7 20.9 24.7 21H24.6C24.6 20.9 24.5 20.8 24.5 20.7C24.4 20.8 24.4 20.9 24.3 20.9C24.2 20.9 24.2 20.8 24.1 20.8C24.1 21 24.1 21.2 24 21.3C24 21.3 24 21.3 23.9 21.3C23.9 21.2 23.8 21.1 23.7 21C23.5 21.5 23.6 21.7 23.8 21.9C23.6 22.1 23.6 22 23.5 21.8C23.4 21.6 23.4 21.5 23.3 21.3C23.3 21.2 23.3 21 23.3 20.9C23.5 20.1 24.6 19.8 25.2 20.2C25.4 20.3 25.5 20.4 25.4 20.7C25.6 21 25.6 21.2 25.6 21.4ZM25.9 20.8C25.9 21.1 26 21.4 26 21.7C25.7 21.5 25.7 21.4 25.9 20.8ZM26.1 23.1C26.1 22.5 26 21.8 26 21.1C26.3 21.4 26.3 22.8 26.1 23.1ZM26.1 24C26.1 23.8 26.1 23.6 26.1 23.4C26.3 23.6 26.3 23.8 26.1 24ZM26.1 31.1C26 30.8 26 30.6 26 30.3C26 30.3 26 30.3 26.1 30.3C26.1 30.6 26.1 30.8 26.1 31.1ZM26.1 29.9C26.1 29.6 26.1 29.2 26.1 28.9C26.1 28.9 26.1 28.9 26.2 28.9C26.1 29.2 26.1 29.6 26.1 29.9ZM26.1 25.9C26.4 26.2 26 26.6 26.3 26.9C26 26.7 26 26.3 26.1 25.9ZM26.2 25.8C25.9 25.3 26.2 24.8 26.1 24.3C26.3 24.5 26.3 24.8 26.2 25.8ZM26.4 31.2C26.3 30.9 26.3 30.6 26.3 30.3C26.3 30.3 26.3 30.3 26.4 30.3C26.4 30.6 26.4 30.9 26.4 31.2ZM26.5 25.2H26.4C26.4 24.9 26.4 24.7 26.3 24.4C26.6 24.4 26.6 24.6 26.5 25.2ZM26.7 31.2C26.6 30.9 26.6 30.5 26.6 30.2C26.6 30.2 26.6 30.2 26.7 30.2C26.7 30.5 26.7 30.8 26.7 31.2ZM26.8 28.6C26.8 28.8 26.8 29 26.8 29.1C26.8 28.8 26.8 28.4 26.8 28C26.9 28.2 26.8 28.4 26.8 28.6ZM26.8 21C26.3 20.7 26.3 20.7 26.4 20.1C26.5 19.4 27 19.1 27.5 18.7H27.7C27.8 18.9 28 19 28 19.2C28.1 19.6 28.1 20.1 27.9 20.5H27.8C27.8 20.2 27.8 19.8 27.8 19.5H27.7C27.7 19.7 27.6 19.9 27.6 20.2H27.5C27.5 20 27.5 19.7 27.5 19.5H27.4C27.4 19.6 27.3 19.7 27.3 19.8C27.3 19.9 27.3 20.1 27.1 20.1C27 20.1 26.9 20.3 26.8 20.5C26.9 20.7 26.9 20.9 26.8 21ZM27.9 14.5C27.9 14.4 28 14.4 28 14.3H28.1C28 15 28.1 15.8 28 16.5H27.9C27.9 16.2 27.9 15.8 27.9 15.5C27.6 16.4 27.8 17.3 27.8 18.2H27.7C27.7 18 27.6 17.8 27.6 17.6C27.6 16.7 27.6 15.8 27.6 14.9C27.6 14.4 27.5 13.9 27.5 13.3C27.6 13.3 27.6 13.3 27.8 13.3C27.8 13.8 27.8 14.1 27.9 14.5ZM27.5 18.6C27.5 18.6 27.4 18.7 27.5 18.6C27.4 18.4 27.3 18.3 27.3 18.1C27.3 16.9 27.3 15.8 27.3 14.6H27.4C27.7 16 27.4 17.3 27.5 18.6ZM29.2 21.7C29.5 21.8 29.7 22.1 29.6 22.4C29.5 22.6 29.5 22.8 29.6 23.1C29.6 23.2 29.6 23.3 29.6 23.5C29.3 23.1 29.6 22.7 29.5 22.4C29.3 22.3 29.2 22.3 29.1 22.2C29.1 22.3 29.1 22.4 29.1 22.5H29C29 22.4 28.9 22.2 28.9 22.1C28.9 22.2 28.9 22.3 28.8 22.4C28.7 22.2 28.6 22.1 28.6 22C28.6 22.1 28.5 22.2 28.5 22.3H28.4C28.4 22.2 28.4 22.1 28.3 21.9C28.3 21.9 28.3 21.9 28.2 21.9C28.2 22 28.2 22.2 28.2 22.3H28.1C28.1 22.2 28 22.1 28 22C28 22.1 27.9 22.3 27.9 22.4H27.8C27.8 22.3 27.8 22.2 27.7 22C27.7 22 27.7 22 27.6 22C27.6 22.1 27.5 22.3 27.5 22.5C27.3 22.1 27.4 21.9 27.7 21.7C28.1 21.5 28.7 21.4 29.2 21.7ZM28.4 14.9C28.4 14.9 28.4 15 28.4 14.9C28.5 15.4 28.5 15.8 28.5 16.3H28.4C28.3 15.8 28.2 15.4 28.4 14.9ZM29 23.4H28.9C28.9 23.2 28.8 23 28.8 22.8H28.9C29.1 23 29.1 23.2 29 23.4ZM27.6 21.2C27.6 21 27.6 20.8 27.7 20.5C28 20.7 27.9 21 27.7 21.2H27.6ZM27 30.5C26.9 30.2 26.9 29.9 26.9 29.6C26.9 29.6 26.9 29.6 27 29.6C27 29.9 27 30.2 27 30.5ZM29.7 33.5C29.6 33.3 29.6 33 29.6 32.8C29.6 32.8 29.6 32.8 29.7 32.8C29.7 33 29.7 33.3 29.7 33.5ZM30 33.3C30 33.1 30 32.8 30 32.6C30.2 32.8 30.2 32.8 30 33.3ZM30.1 32.1C30 32.1 30 32.1 30.1 32.1C30 31.7 30 31.4 30 31H30.1C30.2 31.4 30 31.7 30.1 32.1ZM30.4 32.3C30.3 32.3 30.3 32.3 30.4 32.3C30.3 31.9 30.3 31.5 30.3 31.1C30.6 31.5 30.4 31.9 30.4 32.3ZM30.3 30.8C30.3 30.6 30.3 30.3 30.3 30.1C30.6 30.3 30.6 30.6 30.3 30.8ZM30.7 32.5C30.6 32.5 30.6 32.5 30.7 32.5C30.6 32.1 30.6 31.7 30.6 31.3C30.9 31.7 30.7 32.1 30.7 32.5ZM30.6 29.9C30.6 29.7 30.7 29.4 30.7 29.2C30.9 29.5 30.8 29.7 30.7 30C30.6 29.9 30.6 29.9 30.6 29.9ZM30.6 31C30.6 30.7 30.6 30.4 30.6 30.1C30.9 30.4 30.9 30.7 30.6 31ZM31 31.2C30.8 31.1 30.8 30.8 30.9 30.2C31.1 30.3 31.1 30.4 31 31.2ZM30.8 29.9C30.9 29.7 30.9 29.5 31 29.3C31.1 29.6 31.1 29.8 30.9 29.9C30.9 29.9 30.9 29.9 30.8 29.9ZM31.3 27.2C31.2 26.9 31.2 26.7 31.2 26.4C31.2 26.4 31.2 26.4 31.3 26.4C31.3 26.7 31.3 26.9 31.3 27.2ZM31.6 27.2C31.5 26.9 31.5 26.6 31.5 26.3C31.5 26.3 31.5 26.3 31.6 26.3C31.6 26.6 31.6 26.9 31.6 27.2ZM31.9 27.4C31.8 27 31.8 26.6 31.8 26.2C32.1 26.6 31.9 27 31.9 27.4ZM31.9 28.3C31.9 28.1 31.9 27.9 31.9 27.8H32C32 28 32 28.2 32.1 28.3C32 28.3 31.9 28.3 31.9 28.3ZM32.2 27.4C32.1 27 32.1 26.6 32.1 26.2C32.4 26.6 32.3 27 32.2 27.4ZM32.3 23.6C32 23.4 32.2 23.1 32.1 22.7C32.1 22.9 32 23.1 32 23.3H31.9C31.9 23.1 31.9 22.9 31.9 22.7C31.9 22.9 31.8 23 31.8 23.2H31.7C31.7 23 31.7 22.8 31.7 22.6C32.2 22.5 32.5 22.9 32.3 23.6ZM30.9 22.7C31.1 22.7 31.2 22.7 31.4 22.6C31.4 22.8 31.4 23 31.3 23.2H31.2C31.2 23.1 31.1 23 31.1 22.8C31.1 23.1 31.1 23.3 31.1 23.5C31.2 23.5 31.2 23.4 31.3 23.4C31.3 23.6 31.3 23.7 31.3 23.8C31.1 23.8 31 23.8 30.9 23.9C30.7 23.8 30.6 23.8 30.5 23.7C30.5 23.3 30.6 23 30.9 22.7C30.5 22.8 30.3 23.2 30.4 23.6C30.5 24 30.7 24.2 31.1 24.2C31.4 24.2 31.6 24.3 31.7 23.9C31.8 23.7 32.1 23.7 32.1 23.9C32.2 24.1 32.2 24.4 32.2 24.7C32.2 25 32.1 25.3 31.7 25.4C31.4 25.5 31.3 25.8 31.5 26.2C31 26.2 30.5 26.3 30 26.3C29.2 26.3 28.5 26.1 27.9 25.7C27.6 25.5 27.4 25.3 27.2 25.1C27 24.9 27 24.7 27.2 24.5C27.4 24.3 27.3 24.2 27.2 24C26.9 23.6 27 23.4 27.5 23.3C27.7 23.3 27.9 23.2 28.2 23.3C28.7 23.3 28.7 23.4 28.8 23.9C28.8 24.2 29 24.3 29.3 24.2C29.8 24.1 30.1 23.8 30.2 23.4C30.3 23.1 30.3 22.7 30 22.4C29.9 22.6 29.9 22.9 29.8 23.1H29.7C29.7 22.9 29.7 22.7 29.8 22.6C29.9 22.3 29.8 22.1 29.5 22C29.2 21.9 29 21.8 28.7 21.8C28.6 21.8 28.5 21.8 28.4 21.8C28.5 21.6 28.7 21.5 28.8 21.4C29.2 20.9 29.3 20.3 29.4 19.7C29.5 18.8 29.5 17.9 29.6 17C29.6 16.9 29.6 16.8 29.7 16.7C29.8 16.3 29.8 16.3 29.4 16.3C29.4 16.3 29.3 16.3 29.2 16.3C29.2 15.1 28.2 14.4 27.9 13.3C27.8 13.4 27.7 13.4 27.6 13.5C27.5 13.6 27.4 13.6 27.2 13.5C26.7 13.1 26.2 12.7 25.7 12.3C25.1 11.8 24.4 11.4 23.7 10.9C23.7 11 23.6 11.2 23.6 11.4C22.1 11 20.6 10.4 19.7 8.9C19.9 9 20.1 9.2 20.3 9.3C21.4 10.1 22.6 10.3 23.9 10.4C25.2 10.4 26.4 10.4 27.6 10.9C28.5 11.3 29.4 11.7 30.2 12.2C31.6 13 32.5 14.4 32.9 15.9C33.5 17.7 33.5 19.5 33.1 21.3C33 21.5 33 21.7 32.9 21.9C32.8 22.2 32.7 22.6 32.5 23C32 22.5 31.5 22.3 30.9 22.7ZM32.5 24.9C32.5 24.5 32.5 24.2 32.5 23.8C32.8 24.1 32.6 24.5 32.5 24.9ZM32.6 23.5H32.5C32.5 23.3 32.4 23.1 32.4 22.9H32.5C32.7 23 32.6 23.3 32.6 23.5ZM32.8 22.1C32.9 22.4 32.9 22.7 32.9 23C32.6 22.8 32.7 22.5 32.8 22.1ZM34.1 23.9H34C34 23.8 34 23.6 33.9 23.5C33.9 23.5 33.9 23.5 33.8 23.5C33.8 23.6 33.7 23.7 33.7 23.9C33.6 24 33.6 24.1 33.5 24.2C33.4 24.3 33.3 24.4 33.1 24.6C33.1 24.5 33 24.5 33 24.4C33 24.5 33 24.7 32.9 24.8H32.8C32.8 24.3 32.8 23.9 32.7 23.4C32.8 23.5 32.8 23.5 33 24.2C33.1 24 33.3 23.8 33.4 23.5C33.5 23.3 33.6 23.2 33.8 23.2C34.1 23.2 34.4 23.1 34.7 23C34.7 23.2 34.7 23.3 34.7 23.6C34.6 23.5 34.5 23.4 34.4 23.3C34.4 23.5 34.3 23.7 34.3 23.8H34.2C34.2 23.7 34.2 23.5 34.1 23.4C34.2 23.5 34.2 23.7 34.1 23.9ZM36.1 24C36.1 24.4 36 24.4 35.7 24.3C35.7 24.4 35.6 24.5 35.6 24.6H35.5C35.5 24.5 35.5 24.4 35.5 24.4H35.4C35.4 24.6 35.4 24.7 35.4 24.9H35.3C35.2 24.8 35.1 24.7 35.1 24.6V24.7C35.1 24.7 35.1 24.8 35 24.9C35 24.8 34.9 24.7 34.8 24.6C34.8 24.7 34.8 24.8 34.7 24.9C34.6 24.7 34.5 24.6 34.4 24.4C34.4 24.6 34.3 24.7 34.3 24.9C34.1 24.4 34.2 24.2 34.6 24.1C35.2 24 35.6 24 36.1 24ZM34.9 23.6C34.9 23.4 34.9 23.1 34.9 22.9C35.2 23.1 35.1 23.4 34.9 23.6C34.9 23.6 35 23.6 34.9 23.6ZM35.5 21C35.4 21.1 35.3 21.3 35.2 21.4C35.1 21.5 35 21.6 35 21.7C35 21.7 34.9 21.7 34.9 21.6C35 21.4 35.2 21.2 35.3 21C35.3 21 35.3 21 35.2 21C35.1 21.1 35 21.2 35 21.3H34.9C35.3 20.4 35.3 19.3 36.1 18.5H36.2C36.1 19.1 36.1 19.6 36 20.2H35.9C35.9 19.9 35.9 19.7 35.9 19.4H35.8C35.8 19.7 35.7 20 35.7 20.3C35.7 20.6 35.8 20.9 35.5 21Z" fill="black"/>
</svg>
