<svg width="169" height="27" viewBox="0 0 169 27" fill="none" xmlns="http://www.w3.org/2000/svg">
<path d="M10.3 24.6H7.62939e-07V24L2.2 23.7V0.900001L7.62939e-07 0.6V-7.62939e-07H19.1V6.9H18.5L15.7 0.7H7.7V11.9H12.1L13.8 7.3H14.4V17.2H13.8L12.1 12.6H7.7V23.7L10.4 24V24.6H10.3Z" transform="translate(0 1.60001)" fill="black"/>
<path d="M7.7 13V23.7L9.7 24V24.6H3.05176e-06V24L2.2 23.7V0.900001L3.05176e-06 0.6V-7.62939e-07H12.2C15.9 -7.62939e-07 19.4 1.7 19.4 6C19.4 10.2 15.7 12.3 9.59999 12.8L15.5 14L20.8 23.6L22.2 23.9V24.5H15.2L9.2 12.9H7.7V13ZM7.7 12.3H9C12 12.3 13.7 10 13.7 6.4C13.7 2.9 12.1 0.7 9.9 0.6L7.8 0.900001V12.3H7.7Z" transform="translate(74.1001 1.60001)" fill="black"/>
<path d="M-6.10352e-06 24.6V24L2.20001 23.7V0.900001L-6.10352e-06 0.6V-7.62939e-07H9.8V0.6L7.6 0.900001V23.7H15.2L18.3 17.5H18.9V24.6H-6.10352e-06Z" transform="translate(149.7 1.60001)" fill="black"/>
<path d="M22 13.4C22 15.2 21.5 17 20.6 18.7C19.9 19.9 19.2 20.9 18.5 21.6C17.9 22.2 16.7 23.1 14.9 24.3C12.7 25.8 11.2 26.5 10.4 26.5C10 26.5 9 26.1 7.6 25.4C5.6 24.4 3.9 23.1 2.7 21.5C0.900002 19.4 -3.05176e-06 16.9 -3.05176e-06 14.2C-3.05176e-06 13.5 0.100002 12.9 0.200002 12.3C0.300002 11.7 0.600003 10.8 1.1 9.8C1.4 9 1.8 8.2 2.2 7.6C2.6 6.9 3.1 6.3 3.7 5.8C5 4.6 6.2 3.7 7.1 3.1C8 2.5 8.8 2 9.5 1.6C10 1.2 10.4 0.9 10.7 0.8C11.5 0.2 12.1 7.62939e-07 12.3 7.62939e-07C12.8 7.62939e-07 13.9 0.7 15.7 2.2C17.5 3.7 18.7 5 19.4 6C20 6.9 20.6 7.9 21 9C21.7 10.5 22 12 22 13.4ZM16 16.9C16 15 15.4 12.9 14.3 10.5C12.8 7.6 10.8 5.3 8.3 3.6C7.4 4.6 6.7 5.6 6.3 6.5C5.9 7.4 5.7 8.5 5.7 9.8C5.7 11.7 6.3 13.9 7.5 16.3C9 19.3 11.1 21.7 13.8 23.4C15.2 22 16 19.8 16 16.9Z" transform="translate(35.5)" fill="black"/>
<path d="M21.5 25H14.4V13.3H10.1C9.9 13.6 9.6 14.3 9.3 15.6C8.6 18.6 7.7 21 6.6 22.8C6.2 23.6 5.7 24.2 5.1 24.7C4.4 25.3 3.60001 25.6 2.90001 25.6C2.40001 25.6 1.79999 25.4 1.19999 25C0.399994 24.5 -3.05176e-06 24 -3.05176e-06 23.3C-3.05176e-06 23 0.1 22.7 0.3 22.5C0.5 22.3 0.799997 22.2 0.999997 22.2C1.6 22.2 2 22.6 2 23.3C2 24 2.3 24.4 2.8 24.4C4 24.4 4.8 23.8 5.3 22.6C5.6 21.8 5.69999 20.6 5.69999 19.1C5.69999 18.2 5.7 17.1 5.6 16C5.5 14.8 5.4 13.6 5.3 12.3C5.3 10.8 5.59999 9.4 6.19999 8.1C6.69999 7.1 7.5 6 8.5 4.9C9.1 4.2 10.1 3.3 11.5 2.1L11.3 1.7H5C4.6 1.7 4.20001 1.7 3.90001 1.8C3.30001 2 2.6 2.2 2 2.4V2C2.3 1.6 2.5 1.2 2.6 0.999999C3 0.299999 3.30001 -7.62939e-07 3.40001 -7.62939e-07C3.50001 -7.62939e-07 3.60001 0.1 3.90001 0.2C4.20001 0.3 4.39999 0.400001 4.69999 0.400001H21.5V25V25ZM14.2 11.5V2.1C13.6 2.3 12.9 3 12.3 4.1C12.1 4.5 11.8 5.1 11.5 5.9C11.3 6.5 11.1 7.1 10.9 7.9C10.5 9.5 10.3 10.3 10.3 10.4V11.5H14.2Z" transform="translate(111.5 1.10001)" fill="black"/>
</svg>
